<svg xmlns="http://www.w3.org/2000/svg" viewBox="0 0 92.88 23.29"><path d="M20.75,4.71a1,1,0,0,1,.37.21,1.28,1.28,0,0,1,.62.37A1,1,0,0,1,22,6a1.64,1.64,0,0,1-.2.8,1.88,1.88,0,0,1-.54.62,2.4,2.4,0,0,1-.76.4,2.91,2.91,0,0,1-.89.14,1.73,1.73,0,0,1-1.15-.38A1.46,1.46,0,0,1,18,6.42a2.06,2.06,0,0,1,.12-.7,2,2,0,0,1,.37-.6,1.8,1.8,0,0,1,.61-.44A2.12,2.12,0,0,1,20,4.52a1.23,1.23,0,0,1,.39.06Z" transform="translate(-0.48 -1.69)"/><path d="M28.5,4a.38.38,0,0,1-.12.1.44.44,0,0,1-.15,0h-.12a.3.3,0,0,1-.28-.19c-.06-.14-.13-.28-.21-.44a1.51,1.51,0,0,0-.38-.43,1.19,1.19,0,0,0-.76-.2,1.1,1.1,0,0,0-.55.14,1.29,1.29,0,0,0-.4.33,1.4,1.4,0,0,0-.24.45,1.73,1.73,0,0,0-.08.49,1.78,1.78,0,0,0,.14.7,2.2,2.2,0,0,0,.39.6,4.61,4.61,0,0,0,.6.55l.75.57c.24.17.46.34.68.52a3.94,3.94,0,0,1,.59.56,2.58,2.58,0,0,1,.41.64,1.7,1.7,0,0,1,.16.74,1.06,1.06,0,0,1-.25.73,1.71,1.71,0,0,1-.62.46,2.61,2.61,0,0,1-.82.24,5.24,5.24,0,0,1-.86.07,6.94,6.94,0,0,1-.89-.07,3.5,3.5,0,0,1-.87-.25A2.07,2.07,0,0,1,24,9.88a1,1,0,0,1-.26-.67A.66.66,0,0,1,24,8.65a1.51,1.51,0,0,1,.71-.3c0,.05-.05.13-.1.24a1.26,1.26,0,0,0-.08.48.7.7,0,0,0,.22.54,1.45,1.45,0,0,0,.51.31,2.65,2.65,0,0,0,.62.14l.52,0a2.24,2.24,0,0,0,.37-.05,2.06,2.06,0,0,0,.46-.15,1.3,1.3,0,0,0,.39-.25.53.53,0,0,0,.16-.39.82.82,0,0,0-.11-.38,2.6,2.6,0,0,0-.31-.41A4.47,4.47,0,0,0,26.88,8c-.17-.15-.35-.29-.54-.44s-.56-.43-.83-.66a6,6,0,0,1-.73-.69,3.67,3.67,0,0,1-.53-.75,1.84,1.84,0,0,1-.2-.82,2.38,2.38,0,0,1,.24-1.12,2.24,2.24,0,0,1,.64-.75,2.3,2.3,0,0,1,.86-.42,3.25,3.25,0,0,1,.91-.14,4.32,4.32,0,0,1,.7.06,4.14,4.14,0,0,1,.67.15,1.48,1.48,0,0,1,.5.27.46.46,0,0,1,.2.38.53.53,0,0,1-.11.31.52.52,0,0,0-.12.33A.4.4,0,0,1,28.5,4Z" transform="translate(-0.48 -1.69)"/><path d="M37.36,9.47a.61.61,0,0,1-.17.15L37,9.71l-.19,0a.59.59,0,0,1-.44-.17,1.09,1.09,0,0,1-.25-.42A2.31,2.31,0,0,1,36,8.59c0-.2,0-.39,0-.58s0-.26,0-.37V7.35l0,0c-.08.17-.16.35-.24.56s-.13.41-.19.62-.1.44-.14.65-.07.42-.1.61a1.22,1.22,0,0,1-.33.06h-.16a1.2,1.2,0,0,1-.2,0l-.17,0a.09.09,0,0,1-.06-.08.29.29,0,0,1,0-.09.5.5,0,0,0,0-.12s0-.12,0-.33,0-.43,0-.7,0-.52,0-.76,0-.42,0-.52L34,7.87a7.06,7.06,0,0,1-.33.87,3.34,3.34,0,0,1-.42.75.72.72,0,0,1-.53.31A.83.83,0,0,1,32,9.47a1.49,1.49,0,0,1-.28-.77,2,2,0,0,1-.12.43,2,2,0,0,1-.23.43,1.09,1.09,0,0,1-.31.33.76.76,0,0,1-.42.12.78.78,0,0,1-.33-.07.88.88,0,0,0-.29-.09.64.64,0,0,1-.43-.27,1.71,1.71,0,0,1-.24-.51,2.9,2.9,0,0,1-.12-.6q0-.3,0-.51a9.09,9.09,0,0,1,.08-1.13,5.64,5.64,0,0,1,.24-1.09A2.44,2.44,0,0,1,30,4.92a.82.82,0,0,1,.64-.31A.66.66,0,0,1,31,4.7l.34.14a3,3,0,0,1,.4.16,1.08,1.08,0,0,1,.33.2.81.81,0,0,1,.21.32,1.36,1.36,0,0,1,.07.5v.51a.41.41,0,0,1,0,.11.1.1,0,0,0,.06.1l.15,0a.51.51,0,0,1,.16.09.2.2,0,0,1,.06.16.24.24,0,0,1,0,.11l-.07.24c0,.11,0,.26-.07.44a5.68,5.68,0,0,0,0,.66,1.59,1.59,0,0,0,.09.59c.07.14.14.21.23.21S33,9.2,33.13,9a5.42,5.42,0,0,0,.3-.7c.1-.28.21-.59.31-.93s.2-.67.3-1l.24-.84a4.85,4.85,0,0,1,.17-.51.25.25,0,0,1,.26-.17.45.45,0,0,1,.18,0A.78.78,0,0,1,35.1,5a.57.57,0,0,1,.18.12.23.23,0,0,1,.08.16,1.13,1.13,0,0,1,0,.24,1.51,1.51,0,0,0-.07.37c0,.17,0,.32,0,.46s0,.28,0,.43V7.86c0-.12.11-.29.19-.51l.26-.69c.09-.24.17-.44.25-.62s.14-.26.18-.26l.19,0a1.59,1.59,0,0,1,.3.06l.28.12a.21.21,0,0,1,.12.17.23.23,0,0,1,0,.09l0,.1,0,.18c0,.07,0,.14,0,.22s0,.16,0,.23V8.3c0,.1,0,.2,0,.32s0,.22,0,.33a.67.67,0,0,0,.1.26.2.2,0,0,0,.17.11l.1,0a.1.1,0,0,0,.08-.06h0a.07.07,0,0,1,0,.06A.28.28,0,0,1,37.36,9.47Zm-5.71-3.4a2.07,2.07,0,0,0-.1-.33,1.27,1.27,0,0,0-.18-.27.41.41,0,0,0-.28-.11.68.68,0,0,0-.55.29,2.46,2.46,0,0,0-.33.69,4.62,4.62,0,0,0-.16.84c0,.29,0,.54,0,.74v.37a4.55,4.55,0,0,0,0,.52,1.46,1.46,0,0,0,.15.46.31.31,0,0,0,.29.19.56.56,0,0,0,.39-.17,1.36,1.36,0,0,0,.3-.49,3.64,3.64,0,0,0,.2-.76,8.38,8.38,0,0,0,.12-1,1,1,0,0,1,0-.29l.06-.12.06-.1a.51.51,0,0,0,0-.21A1.68,1.68,0,0,0,31.65,6.07Z" transform="translate(-0.48 -1.69)"/><path d="M44.08,7.83a.64.64,0,0,1-.34.09,12.83,12.83,0,0,1-.16,1.64,14,14,0,0,1-.37,1.65,9.3,9.3,0,0,1-.32.9,6.31,6.31,0,0,1-.55,1,3.48,3.48,0,0,1-.78.84,1.64,1.64,0,0,1-1,.35.93.93,0,0,1-.27,0,.49.49,0,0,1-.27-.13,2.94,2.94,0,0,1-.42-.44,4.49,4.49,0,0,1-.37-.52,3.42,3.42,0,0,1-.26-.55,1.63,1.63,0,0,1-.09-.52,1.71,1.71,0,0,1,.12-.57,5.54,5.54,0,0,1,.29-.68c.12-.23.24-.44.36-.64A5.65,5.65,0,0,1,40,9.75c.29-.39.53-.7.72-.92s.37-.4.52-.54.28-.25.41-.35.27-.22.42-.36c0,0-.05-.08-.15-.17A2,2,0,0,1,41.53,7a3.9,3.9,0,0,1-.35-.83A4.79,4.79,0,0,1,41,4.83a3.9,3.9,0,0,1,.11-1A3.2,3.2,0,0,1,41.46,3a1.91,1.91,0,0,1,.48-.59,1,1,0,0,1,.6-.21l.86-.06a.21.21,0,0,1,.19.09.38.38,0,0,1,.06.22l0,.44a3.67,3.67,0,0,0,.05.66,3,3,0,0,1,.06.5v3c.3.08.47.21.5.4v.07A.26.26,0,0,1,44.08,7.83Zm-1.51.43s0,0-.08,0a.85.85,0,0,0-.47.21,3.7,3.7,0,0,0-.57.56,8.82,8.82,0,0,0-.6.78,9.18,9.18,0,0,0-.54.89,6.29,6.29,0,0,0-.37.87,2.31,2.31,0,0,0-.15.74,1.12,1.12,0,0,0,.19.64.72.72,0,0,0,.62.27.83.83,0,0,0,.64-.33,3.13,3.13,0,0,0,.51-.84,6.88,6.88,0,0,0,.38-1.11c.1-.41.19-.79.26-1.14s.12-.67.15-.93.05-.41.05-.47v0A.29.29,0,0,0,42.57,8.26Zm.06-4.73c0-.2,0-.29-.15-.29a.49.49,0,0,0-.25.08A.87.87,0,0,0,42,3.6a1.76,1.76,0,0,0-.19.51,4.4,4.4,0,0,0-.07.8,4.88,4.88,0,0,0,.09,1,3.27,3.27,0,0,0,.21.74,1.6,1.6,0,0,0,.26.46.38.38,0,0,0,.26.17s.06,0,.06-.09V4.08Z" transform="translate(-0.48 -1.69)"/><path d="M49.75,9.92a1.91,1.91,0,0,1-.84.19l-.35,0A1.9,1.9,0,0,1,48.2,10a.73.73,0,0,1-.28-.17.33.33,0,0,1-.11-.27A.43.43,0,0,1,48,9.2a.67.67,0,0,1,.39-.11.82.82,0,0,1,.33.09.74.74,0,0,0,.31.09.41.41,0,0,0,.38-.19.89.89,0,0,0,.12-.47A2.28,2.28,0,0,0,49.4,8c0-.22-.12-.45-.19-.68s-.13-.48-.19-.74a5.18,5.18,0,0,1-.11-.79c0,.29-.11.59-.17.9a2.83,2.83,0,0,1-.35.86,1.26,1.26,0,0,1-.2.28L48,8l-.1.08-.09,0c0,.13,0,.23,0,.28s0,.08,0,.1a1.49,1.49,0,0,1-.12.43,2.3,2.3,0,0,1-.26.52,1.6,1.6,0,0,1-.39.43.89.89,0,0,1-.55.18A1.83,1.83,0,0,1,46,10a3.15,3.15,0,0,1-.47-.2A1.72,1.72,0,0,1,45,9.39a1.54,1.54,0,0,1-.27-.46,1.69,1.69,0,0,1-.13-.49,4.46,4.46,0,0,1,0-.5,4.74,4.74,0,0,1,.08-.82,6.55,6.55,0,0,1,.2-.82,5.09,5.09,0,0,1,.29-.7,2,2,0,0,1,.32-.48.74.74,0,0,1,.33-.22.85.85,0,0,1,.33-.07.8.8,0,0,1,.36.09,1.88,1.88,0,0,1,.36.24,3.28,3.28,0,0,1,.34.31c.11.12.21.23.3.35a.93.93,0,0,1,.18.4,5.07,5.07,0,0,1,.09.54c0,.22,0,.45,0,.7a1.39,1.39,0,0,0,.37-.59,4.87,4.87,0,0,0,.22-.77c.06-.27.1-.53.14-.79a4.73,4.73,0,0,1,.13-.64.16.16,0,0,1,.14-.14l.25,0h.16l.2,0,.27.07.23.1a.17.17,0,0,1,.1.13.24.24,0,0,1,0,.09.67.67,0,0,0-.06.12.58.58,0,0,0-.06.23,2.1,2.1,0,0,0,0,.4,3,3,0,0,0,.11.78c.06.26.13.51.21.77s.15.51.22.75a2.52,2.52,0,0,1,.1.7,1.34,1.34,0,0,1-.12.6A1.24,1.24,0,0,1,49.75,9.92Zm-3-1.39a2.3,2.3,0,0,1-.39.05,2,2,0,0,1-.42-.05,1.25,1.25,0,0,1-.41-.18v.24a1.39,1.39,0,0,0,0,.27.62.62,0,0,0,.11.25.53.53,0,0,0,.21.18.71.71,0,0,0,.34.08.83.83,0,0,0,.43-.11A.88.88,0,0,0,46.88,9,1.25,1.25,0,0,0,47,8.68a.89.89,0,0,0,.06-.31A1,1,0,0,1,46.7,8.53Zm.43-1.28c0-.11,0-.23,0-.37a4.14,4.14,0,0,0-.07-.45A2.55,2.55,0,0,0,46.93,6a.91.91,0,0,0-.19-.32.34.34,0,0,0-.28-.13.53.53,0,0,0-.32.14,1.32,1.32,0,0,0-.28.36,2.41,2.41,0,0,0-.21.49,2,2,0,0,0-.07.53,1,1,0,0,0,.18.68.76.76,0,0,0,.63.22,1.38,1.38,0,0,0,.54-.09c.13-.07.2-.12.2-.16V7.25Z" transform="translate(-0.48 -1.69)"/><path d="M54.35,8.56a2.47,2.47,0,0,1-.34.69,2.14,2.14,0,0,1-.58.54,1.65,1.65,0,0,1-.85.21,1.62,1.62,0,0,1-.79-.17,1.54,1.54,0,0,1-.53-.45A1.83,1.83,0,0,1,51,8.7a3.62,3.62,0,0,1-.09-.82A5.19,5.19,0,0,1,51,7a4.79,4.79,0,0,1,.3-1,2.47,2.47,0,0,1,.52-.73A1.09,1.09,0,0,1,52.54,5a.93.93,0,0,1,.4.09,1.36,1.36,0,0,1,.34.23,1.13,1.13,0,0,1,.23.34A1.38,1.38,0,0,1,53.6,6v.17a2.51,2.51,0,0,1-.09.63,2.44,2.44,0,0,1-.28.64A1.88,1.88,0,0,1,52.8,8a1,1,0,0,1-.6.2h-.15l-.17,0v.35a.72.72,0,0,0,0,.24,1.1,1.1,0,0,0,.16.3,1.2,1.2,0,0,0,.28.27.83.83,0,0,0,.43.11,1,1,0,0,0,.93-.49A2,2,0,0,0,54,8.41c0-.18.09-.35.12-.52a1.7,1.7,0,0,1,.07-.23.14.14,0,0,1,.12-.06q.18,0,.18.21v.08A2.42,2.42,0,0,1,54.35,8.56ZM51.78,4.5a.39.39,0,0,1-.19.13l-.06,0a.48.48,0,0,0-.08-.12l-.05,0,0,0s0,0,0-.06V4.21a.61.61,0,0,1,0-.15.6.6,0,0,1,.14-.15l.54-.48L52.61,3c.18-.13.33-.24.47-.32a.68.68,0,0,1,.32-.13.14.14,0,0,1,.12.07,1.58,1.58,0,0,1,0,.41.58.58,0,0,1,0,.27.34.34,0,0,1-.12.12l-.18.06a.73.73,0,0,0-.25.1l-1,.7A2.15,2.15,0,0,1,51.78,4.5ZM53,5.83a.19.19,0,0,0-.19-.11.47.47,0,0,0-.38.23,1.93,1.93,0,0,0-.25.52A3.35,3.35,0,0,0,52,7a1.78,1.78,0,0,0,0,.36v0a.47.47,0,0,0,0,.18s.05.06.12.06h.06a.54.54,0,0,0,.41-.18,1.43,1.43,0,0,0,.27-.43A2.46,2.46,0,0,0,53,6.54a2.81,2.81,0,0,0,0-.44V6A.41.41,0,0,0,53,5.83Z" transform="translate(-0.48 -1.69)"/><path d="M56,9.73a1.37,1.37,0,0,1-.33.31,1.73,1.73,0,0,1-.41.2,1.34,1.34,0,0,1-.36.06.18.18,0,0,1-.1,0,.11.11,0,0,1-.08-.07l.17,0a1.17,1.17,0,0,0,.2-.06.41.41,0,0,0,.14-.12.23.23,0,0,0,.06-.18c0-.05,0-.08-.15-.11l-.32-.09a1.79,1.79,0,0,1-.32-.13.23.23,0,0,1-.15-.22s0-.06,0-.07l0-.1a.57.57,0,0,1,.13-.27,1,1,0,0,1,.23-.18A1.34,1.34,0,0,1,55,8.56l.23,0a.74.74,0,0,1,.29.05,1,1,0,0,1,.28.16.76.76,0,0,1,.22.25.62.62,0,0,1,.08.33A.67.67,0,0,1,56,9.73Z" transform="translate(-0.48 -1.69)"/><path d="M63.48,8.66a3.14,3.14,0,0,1-.46.66,2,2,0,0,1-.9.62,2.8,2.8,0,0,1-.89.16,1.93,1.93,0,0,1-1.75-.91,5,5,0,0,1-.57-2.63,8.12,8.12,0,0,1,.16-1.68,5.87,5.87,0,0,1,.44-1.36,2.85,2.85,0,0,1,.65-.92A1.2,1.2,0,0,1,61,2.27h.25a1,1,0,0,1,.37.06,2,2,0,0,1,.29.15l.28.19a1.93,1.93,0,0,0,.36.2.82.82,0,0,1,.48.57,3.12,3.12,0,0,1,.12.88c0,.11,0,.22,0,.35A.93.93,0,0,1,63,5a.64.64,0,0,1-.19.25.57.57,0,0,1-.38.13A.5.5,0,0,1,62,5.14a1,1,0,0,1-.13-.51c0-.1,0-.23,0-.38a3.4,3.4,0,0,0,0-.45,1.47,1.47,0,0,0-.09-.53.36.36,0,0,0-.37-.22.93.93,0,0,0-.73.31,2.61,2.61,0,0,0-.44.81,5.83,5.83,0,0,0-.23,1.09Q60,5.86,60,6.43c0,.38,0,.74,0,1.06a3.75,3.75,0,0,0,.15.87,1.87,1.87,0,0,0,.34.66,1.75,1.75,0,0,0,.64.47,1.06,1.06,0,0,0,.37.07,1.26,1.26,0,0,0,.57-.14,1.4,1.4,0,0,0,.47-.37,1.65,1.65,0,0,0,.33-.52,1.57,1.57,0,0,0,.12-.6,1.35,1.35,0,0,1,.11-.55.39.39,0,0,1,.38-.24.25.25,0,0,1,.25.12.6.6,0,0,1,.06.27,1.47,1.47,0,0,1-.06.46A2.61,2.61,0,0,1,63.48,8.66Z" transform="translate(-0.48 -1.69)"/><path d="M68.66,8.83a1.72,1.72,0,0,1-.25.43,1.67,1.67,0,0,1-.34.36.77.77,0,0,1-.44.14A.86.86,0,0,1,67,9.49a1.33,1.33,0,0,1-.33-.78c0,.12-.1.27-.17.44a2.08,2.08,0,0,1-.24.47,1.42,1.42,0,0,1-.33.36.67.67,0,0,1-.44.15h-.1l-.08,0-.1,0h-.15a.65.65,0,0,1-.48-.19,1.35,1.35,0,0,1-.32-.47,2.43,2.43,0,0,1-.17-.63A3.72,3.72,0,0,1,64,8.12a11.88,11.88,0,0,1,.08-1.37,5,5,0,0,1,.26-1.14,2.06,2.06,0,0,1,.46-.79,1,1,0,0,1,.7-.3,1.66,1.66,0,0,1,.37,0l.23.1.23.11a1.79,1.79,0,0,0,.36.1.82.82,0,0,1,.35.34,1.2,1.2,0,0,1,.13.43,2.43,2.43,0,0,1,0,.47,2,2,0,0,0,0,.49.07.07,0,0,0,0,0l.13.06a.32.32,0,0,1,.12.08.18.18,0,0,1,.06.14V7a2.28,2.28,0,0,0-.15.55c0,.16,0,.35,0,.57a2.36,2.36,0,0,0,0,.37,2,2,0,0,0,.06.37.77.77,0,0,0,.12.29.28.28,0,0,0,.22.11.36.36,0,0,0,.26-.14,1.77,1.77,0,0,0,.19-.33c0-.13.09-.25.13-.38s.06-.22.07-.29,0-.14.11-.14a.17.17,0,0,1,.12.06.39.39,0,0,1,.05.24v.09a.38.38,0,0,1,0,.1A1.72,1.72,0,0,1,68.66,8.83ZM66.54,6.18a1.69,1.69,0,0,0-.09-.34.68.68,0,0,0-.18-.26A.42.42,0,0,0,66,5.47a.65.65,0,0,0-.55.3,3,3,0,0,0-.33.72,4.07,4.07,0,0,0-.15.86,6.81,6.81,0,0,0,0,.69c0,.12,0,.28,0,.46A3.92,3.92,0,0,0,65,9a1.11,1.11,0,0,0,.14.4.24.24,0,0,0,.23.17.6.6,0,0,0,.53-.27,1.78,1.78,0,0,0,.28-.67,5.72,5.72,0,0,0,.14-.86c0-.31.06-.59.08-.85a.37.37,0,0,1,.11-.26s.08-.06.08-.07V6.49C66.56,6.4,66.55,6.3,66.54,6.18Z" transform="translate(-0.48 -1.69)"/><path d="M70.73,9.64a1,1,0,0,1-.25.19,1.2,1.2,0,0,1-.31.13,1,1,0,0,1-.27,0,2.42,2.42,0,0,1-.45,0A1,1,0,0,1,69,9.79a1.11,1.11,0,0,1-.32-.5,3.42,3.42,0,0,1-.19-.82,7.92,7.92,0,0,1-.09-1.05c0-.39,0-.8,0-1.22,0-.18,0-.37,0-.59s0-.44,0-.68l.06-.7c0-.24,0-.46.07-.68s.05-.32.09-.49.06-.35.1-.51a3.75,3.75,0,0,1,.12-.43.66.66,0,0,1,.16-.27.43.43,0,0,1,.26-.13l.29,0a.71.71,0,0,1,.45.14,1,1,0,0,1,.25.39,2.39,2.39,0,0,1,.12.57c0,.21,0,.44,0,.68s0,.76,0,1.19-.08.86-.15,1.29A9,9,0,0,1,70,7.21a4.42,4.42,0,0,1-.55,1.11,3.22,3.22,0,0,0,0,.39,2.59,2.59,0,0,0,.09.42,1.35,1.35,0,0,0,.15.32.3.3,0,0,0,.26.13.36.36,0,0,0,.22-.06,1.06,1.06,0,0,0,.15-.15,1,1,0,0,1,.14-.15.21.21,0,0,1,.17-.07.17.17,0,0,1,.16.07.37.37,0,0,1-.06.42Zm-.8-6.17a3,3,0,0,0,0-.33,1,1,0,0,0-.08-.28c0-.08-.07-.11-.13-.11s-.14.11-.19.33a5.66,5.66,0,0,0-.11.88c0,.37,0,.78-.06,1.24s0,.92,0,1.4V7c0,.15,0,.28,0,.39a7,7,0,0,0,.51-1.83,15.54,15.54,0,0,0,.1-1.83Z" transform="translate(-0.48 -1.69)"/><path d="M72.31,4.32a.64.64,0,0,1-.19.08l-.19,0h-.12a1,1,0,0,1-.5-.14,1.42,1.42,0,0,1-.45-.46l-.07-.1s-.05-.06-.05-.08,0-.08.09-.11l.2-.09a1.19,1.19,0,0,1,.22-.08l.14,0a1,1,0,0,1,.47.12.88.88,0,0,1,.38.44,1.06,1.06,0,0,0,.09.13.28.28,0,0,1,.06.13A.14.14,0,0,1,72.31,4.32Zm1.18,4.1a2.8,2.8,0,0,1-.27.58,1.54,1.54,0,0,1-.44.44,1.13,1.13,0,0,1-.65.18,1.09,1.09,0,0,1-.61-.21,1.08,1.08,0,0,1-.43-.56A2.29,2.29,0,0,1,71,8.18c0-.06,0-.16,0-.29s0-.28,0-.47V5.9l0-.2a.49.49,0,0,0,0-.11.16.16,0,0,1,0-.09s0,0,.07-.07l.13,0h.37a1.26,1.26,0,0,1,.27,0,.68.68,0,0,1,.26.11.27.27,0,0,1,.12.23s0,.06,0,.13a1.31,1.31,0,0,0-.1.33.9.9,0,0,1,0,.18l0,.17c0,.07,0,.14,0,.24s0,.21,0,.35v.72c0,.13,0,.26,0,.39a2,2,0,0,0,.05.36.59.59,0,0,0,.14.26.33.33,0,0,0,.25.11.49.49,0,0,0,.36-.14,2,2,0,0,0,.21-.23,1.5,1.5,0,0,0,.2-.44c0-.19.09-.37.13-.56l0-.12a.19.19,0,0,1,.21-.18c.12,0,.18.08.18.25v.06l0,.18A5,5,0,0,1,73.49,8.42Z" transform="translate(-0.48 -1.69)"/><path d="M75.82,6.76a1.71,1.71,0,0,1-.33.4,1.28,1.28,0,0,1,.22.36,2.93,2.93,0,0,1,.12.47,4.43,4.43,0,0,1,.06.51c0,.17,0,.33,0,.5s0,.16,0,.36,0,.44-.07.72-.09.57-.15.88a6.58,6.58,0,0,1-.22.85,2.82,2.82,0,0,1-.33.65.53.53,0,0,1-.45.25.92.92,0,0,1-.25-.05l-.28-.13a2.48,2.48,0,0,1-.26-.19.73.73,0,0,1-.18-.22,2.19,2.19,0,0,1-.17-.7,11.9,11.9,0,0,1-.06-1.36c0-.31,0-.64,0-1s0-.73.08-1.16l-.18-.06-.2-.09A.46.46,0,0,1,73,7.62.31.31,0,0,1,73,7.41.4.4,0,0,1,73,7.17.5.5,0,0,1,73.21,7l.25-.11.27-.07c0-.18.08-.42.16-.73s.16-.64.24-1,.16-.72.22-1.09a7.3,7.3,0,0,0,.09-1,1.56,1.56,0,0,0,0-.39,1.07,1.07,0,0,0-.14-.34,1.09,1.09,0,0,1,.28-.11,2.25,2.25,0,0,1,.4,0l.2,0a.58.58,0,0,1,.21.1.65.65,0,0,1,.18.15.38.38,0,0,1,.07.21,2.16,2.16,0,0,1-.11.65c-.07.23-.14.48-.2.76s-.07.29-.11.44-.09.31-.14.51-.13.43-.2.7-.16.61-.26,1l.26,0,.28-.06.36-.09L76,6.39A2.18,2.18,0,0,1,75.82,6.76ZM75.27,8.4a2.2,2.2,0,0,0,0-.36,2.47,2.47,0,0,0-.1-.35c0-.11-.09-.16-.16-.16l-.1,0-.18.08-.24.12c0,.31-.09.71-.12,1.19s0,1.11-.07,1.89V11c0,.12,0,.24,0,.38a1.43,1.43,0,0,0,.07.37c0,.11.08.17.13.17a.33.33,0,0,0,.27-.19,1.58,1.58,0,0,0,.2-.47,4.54,4.54,0,0,0,.15-.61,5.8,5.8,0,0,0,.1-.63c0-.19.05-.35.06-.49s0-.21,0-.23V8.59S75.28,8.51,75.27,8.4Z" transform="translate(-0.48 -1.69)"/><path d="M80.49,5a.22.22,0,0,0,.05.16.47.47,0,0,0,.19.06l.34,0,.31,0a1.16,1.16,0,0,1,.4.06.21.21,0,0,1,.15.22.28.28,0,0,1,0,.11c-.13.53-.22,1-.28,1.4a9.67,9.67,0,0,0-.08,1.2c0,.14,0,.27,0,.4a1.82,1.82,0,0,0,.06.35.68.68,0,0,0,.13.24.25.25,0,0,0,.2.09.4.4,0,0,0,.36-.2,2.83,2.83,0,0,0,.2-.43l.16-.44c0-.14.13-.2.22-.2A.21.21,0,0,1,83,8a.25.25,0,0,1,0,.17,1.8,1.8,0,0,1-.06.37,1.86,1.86,0,0,1-.23.5,1.4,1.4,0,0,1-.4.44.92.92,0,0,1-.59.2.73.73,0,0,1-.52-.2A1.38,1.38,0,0,1,80.94,9a2.82,2.82,0,0,1-.17-.68,6.09,6.09,0,0,1,0-.72,7.88,7.88,0,0,1,0-.82c0-.28,0-.56.07-.81a.13.13,0,0,0-.1-.13.36.36,0,0,0-.21-.05.24.24,0,0,0-.17.06,3.56,3.56,0,0,1-.22.75,2.93,2.93,0,0,1-.27.48,1.36,1.36,0,0,1-.32.35c0,.23,0,.42,0,.55s0,.27,0,.39a4,4,0,0,1-.13.48,2.87,2.87,0,0,1-.24.57,1.76,1.76,0,0,1-.37.48.85.85,0,0,1-.56.19,1.06,1.06,0,0,1-.24,0L77.63,10a2.29,2.29,0,0,1-.28-.09l-.23-.12a2,2,0,0,1-.49-.4,1.76,1.76,0,0,1-.29-.48,2,2,0,0,1-.14-.52,4.91,4.91,0,0,1,0-.53A4.36,4.36,0,0,1,76.25,7c.06-.3.14-.58.22-.85a4.22,4.22,0,0,1,.31-.74,2.41,2.41,0,0,1,.32-.5.79.79,0,0,1,.35-.23.9.9,0,0,1,.34-.07.81.81,0,0,1,.39.1,1.67,1.67,0,0,1,.37.24,2.15,2.15,0,0,1,.35.33q.18.18.33.36a.53.53,0,0,1,.12.25l.09.38a2.21,2.21,0,0,1,.07.48,2.09,2.09,0,0,0,.19-.65,7.12,7.12,0,0,0,0-.83,1,1,0,0,0,0-.14c0-.07,0-.16,0-.25a1.81,1.81,0,0,0,0-.25,1,1,0,0,1,0-.13v0a.12.12,0,0,1,0-.1.52.52,0,0,1,.13-.06h.34l.15,0,.13,0a.1.1,0,0,1,.07,0l-.05.54ZM78.4,8.16a2.18,2.18,0,0,1-.93,0A2.68,2.68,0,0,1,77.11,8v.31a1.89,1.89,0,0,0,0,.31,1,1,0,0,0,.11.34.64.64,0,0,0,.22.27.54.54,0,0,0,.37.11.64.64,0,0,0,.45-.16,1.48,1.48,0,0,0,.31-.39,2.07,2.07,0,0,0,.18-.47,2.4,2.4,0,0,0,.06-.38A1.35,1.35,0,0,1,78.4,8.16Zm.47-1.4a3.33,3.33,0,0,0-.09-.61,1.83,1.83,0,0,0-.22-.57.44.44,0,0,0-.41-.25.49.49,0,0,0-.33.14,1.19,1.19,0,0,0-.27.38,2.53,2.53,0,0,0-.19.48,1.5,1.5,0,0,0-.07.45,1.24,1.24,0,0,0,0,.3.91.91,0,0,0,.12.31.61.61,0,0,0,.24.24.66.66,0,0,0,.38.11,1.45,1.45,0,0,0,.29,0,1.14,1.14,0,0,0,.26-.09.91.91,0,0,0,.19-.13.17.17,0,0,0,.07-.14V7.12S78.88,7,78.87,6.76Z" transform="translate(-0.48 -1.69)"/><path d="M84.06,7.68c-.07.21-.14.42-.19.64a5.18,5.18,0,0,0-.14.66q-.06.33-.12.63s-.07.08-.18.09l-.24,0a1.69,1.69,0,0,1-.35,0,.31.31,0,0,1-.21-.11.68.68,0,0,1-.11-.28c0-.12,0-.29-.06-.5l.16-3.56c0-.1,0-.15.17-.15a.62.62,0,0,1,.17,0,1,1,0,0,1,.22,0,.67.67,0,0,1,.21.09.15.15,0,0,1,.08.12V7.82a.37.37,0,0,0,0-.1l.2-.53c.08-.21.17-.41.26-.61a3.18,3.18,0,0,1,.31-.49.46.46,0,0,1,.33-.2.48.48,0,0,1,.33.1.59.59,0,0,1,.17.26,1.14,1.14,0,0,1,.08.33c0,.12,0,.24,0,.35s0,.21,0,.4,0,.46,0,.83a2.47,2.47,0,0,0,.06.56c0,.17.12.25.24.25a.31.31,0,0,0,.24-.12,1.42,1.42,0,0,0,.2-.3A2.5,2.5,0,0,0,86,8.17a2,2,0,0,0,.07-.39c0-.15.07-.22.18-.22s.12,0,.14.07a.29.29,0,0,1,0,.16v0a3,3,0,0,1-.09.54,2.13,2.13,0,0,1-.23.56,1.41,1.41,0,0,1-.39.45,1,1,0,0,1-.59.18.65.65,0,0,1-.69-.39A3.42,3.42,0,0,1,84.33,8l0-.88A2.73,2.73,0,0,0,84.06,7.68Z" transform="translate(-0.48 -1.69)"/><path d="M87.67,4.32a.64.64,0,0,1-.19.08l-.19,0h-.12a1,1,0,0,1-.5-.14,1.42,1.42,0,0,1-.45-.46l-.07-.1s-.05-.06-.05-.08,0-.08.09-.11l.2-.09a1.19,1.19,0,0,1,.22-.08l.14,0a1,1,0,0,1,.47.12.88.88,0,0,1,.38.44.5.5,0,0,0,.09.13.28.28,0,0,1,.06.13A.14.14,0,0,1,87.67,4.32Zm1.18,4.1a2.8,2.8,0,0,1-.27.58,1.54,1.54,0,0,1-.44.44,1.13,1.13,0,0,1-.65.18,1.09,1.09,0,0,1-.61-.21,1.08,1.08,0,0,1-.43-.56,2.29,2.29,0,0,1-.11-.67c0-.06,0-.16,0-.29s0-.28,0-.47V5.9l0-.2s0-.07,0-.11a.16.16,0,0,1,0-.09s0,0,.06-.07l.14,0h.37a1.26,1.26,0,0,1,.27,0,.68.68,0,0,1,.26.11.27.27,0,0,1,.12.23.3.3,0,0,1,0,.13,1.31,1.31,0,0,0-.1.33c0,.07,0,.13,0,.18l0,.17c0,.07,0,.14,0,.24a3.16,3.16,0,0,0,0,.35v.72c0,.13,0,.26,0,.39a2,2,0,0,0,.05.36.59.59,0,0,0,.14.26.33.33,0,0,0,.25.11A.49.49,0,0,0,88,8.86a2,2,0,0,0,.21-.23,1.5,1.5,0,0,0,.2-.44c0-.19.09-.37.13-.56l0-.12a.19.19,0,0,1,.21-.18c.12,0,.18.08.18.25v.06l0,.18A5,5,0,0,1,88.85,8.42Z" transform="translate(-0.48 -1.69)"/><path d="M93.22,8.83a2,2,0,0,1-.24.43,1.71,1.71,0,0,1-.35.36.77.77,0,0,1-.44.14.86.86,0,0,1-.63-.27,1.33,1.33,0,0,1-.33-.78l-.16.44a3.45,3.45,0,0,1-.24.47,1.91,1.91,0,0,1-.33.36.69.69,0,0,1-.44.15H90l-.08,0-.09,0h-.15a.66.66,0,0,1-.49-.19,1.35,1.35,0,0,1-.32-.47,2.9,2.9,0,0,1-.17-.63,3.66,3.66,0,0,1-.05-.64,12,12,0,0,1,.07-1.37,5,5,0,0,1,.26-1.14,2.07,2.07,0,0,1,.47-.79.92.92,0,0,1,.69-.3,1.59,1.59,0,0,1,.37,0l.23.1.24.11a1.51,1.51,0,0,0,.35.1.77.77,0,0,1,.35.34,1.21,1.21,0,0,1,.14.43,3.62,3.62,0,0,1,0,.47,2.68,2.68,0,0,0,0,.49l0,0,.13.06a.35.35,0,0,1,.13.08.22.22,0,0,1,0,.14V7a1.85,1.85,0,0,0-.14.55,4.67,4.67,0,0,0,0,.57c0,.12,0,.24,0,.37a2,2,0,0,0,.06.37.78.78,0,0,0,.13.29.25.25,0,0,0,.21.11.34.34,0,0,0,.26-.14,1.77,1.77,0,0,0,.19-.33A2.84,2.84,0,0,0,93,8.37a1.92,1.92,0,0,0,.07-.29c0-.09.05-.14.12-.14A.14.14,0,0,1,93.3,8a.38.38,0,0,1,.06.24v.09a.44.44,0,0,1,0,.1A1.34,1.34,0,0,1,93.22,8.83ZM91.1,6.18A1.21,1.21,0,0,0,91,5.84a.68.68,0,0,0-.18-.26.44.44,0,0,0-.33-.11.63.63,0,0,0-.54.3,2.64,2.64,0,0,0-.33.72,4.84,4.84,0,0,0-.16.86q0,.44,0,.69c0,.12,0,.28,0,.46s0,.35.07.51a1.34,1.34,0,0,0,.14.4.26.26,0,0,0,.23.17.63.63,0,0,0,.54-.27,2.18,2.18,0,0,0,.28-.67,7.35,7.35,0,0,0,.14-.86c0-.31,0-.59.07-.85A.42.42,0,0,1,91,6.67c.06,0,.08-.06.08-.07V6.49A1.78,1.78,0,0,0,91.1,6.18Z" transform="translate(-0.48 -1.69)"/><path d="M.83,18.85A4.4,4.4,0,0,1,6.61,16.5a4.51,4.51,0,0,1,1.4.95,4.39,4.39,0,0,1,1,1.4,4.32,4.32,0,0,1,.35,1.71A4.39,4.39,0,0,1,8,23.69a4.66,4.66,0,0,1-1.4.94,4.4,4.4,0,0,1-3.44,0,4.53,4.53,0,0,1-1.4-.94A4.43,4.43,0,0,1,.48,20.56,4.32,4.32,0,0,1,.83,18.85Zm.45,3.39a3.6,3.6,0,0,0,.85,1.18,3.75,3.75,0,0,0,1.25.79,4.33,4.33,0,0,0,1.53.28,3.49,3.49,0,0,0,1.53-.34,4.07,4.07,0,0,0,1.24-.9,4.12,4.12,0,0,0,.83-1.31,4.07,4.07,0,0,0,.31-1.54,3.66,3.66,0,0,0-.31-1.5,3.7,3.7,0,0,0-.83-1.19,3.92,3.92,0,0,0-1.24-.79,4.33,4.33,0,0,0-1.53-.28A3.49,3.49,0,0,0,3.38,17a3.88,3.88,0,0,0-1.25.9,4.17,4.17,0,0,0-.85,1.31A4.08,4.08,0,0,0,1,20.74,3.73,3.73,0,0,0,1.28,22.24Zm4.53-4.39a3.56,3.56,0,0,1,.61.16l.06.15a1.09,1.09,0,0,1,0,.26,1.14,1.14,0,0,1-.09.41.53.53,0,0,1-.13.19.25.25,0,0,1-.21.08H5.94A.41.41,0,0,1,5.71,19a.34.34,0,0,1-.13-.18.88.88,0,0,1,0-.15.31.31,0,0,0-.09-.11.72.72,0,0,0-.27,0,2,2,0,0,0-.79.16,1.82,1.82,0,0,0-.61.46,2.22,2.22,0,0,0-.4.71,2.9,2.9,0,0,0-.14.91,2.67,2.67,0,0,0,.09.69,2.11,2.11,0,0,0,.3.6,1.59,1.59,0,0,0,.52.44,1.67,1.67,0,0,0,.73.16,1.52,1.52,0,0,0,.64-.12,1.26,1.26,0,0,0,.4-.31,1.19,1.19,0,0,0,.21-.44,2.17,2.17,0,0,0,.08-.5A.7.7,0,0,1,6.45,21a.66.66,0,0,1,.27-.06A.38.38,0,0,1,7,21a.49.49,0,0,1,.12.36,1.75,1.75,0,0,1-.18.78,2.32,2.32,0,0,1-.49.63,2.64,2.64,0,0,1-.7.43,2.25,2.25,0,0,1-.81.16,2.9,2.9,0,0,1-1-.19,2.46,2.46,0,0,1-.83-.53,2.5,2.5,0,0,1-.54-.81,2.59,2.59,0,0,1-.2-1.05,3.56,3.56,0,0,1,.21-1.27,3,3,0,0,1,.6-.95,2.71,2.71,0,0,1,.92-.6,3.2,3.2,0,0,1,1.17-.21A3.56,3.56,0,0,1,5.81,17.85Zm.79.24,0,0Z" transform="translate(-0.48 -1.69)"/><path d="M21.16,24.22a1.4,1.4,0,0,1-.6.12A.78.78,0,0,1,20,24.1a1.86,1.86,0,0,1-.37-.8,8.31,8.31,0,0,1-.2-1.42c0-.59-.06-1.3-.06-2.14a.06.06,0,0,0,0-.06,1.45,1.45,0,0,0-.09.25c-.05.17-.1.37-.16.62s-.13.53-.2.84-.13.6-.19.9-.1.56-.14.82a4,4,0,0,0-.06.6.2.2,0,0,0,0,.14.1.1,0,0,1,0,.18.53.53,0,0,1-.15.08l-.17.06-.11,0a1.41,1.41,0,0,1-.25,0,1.21,1.21,0,0,1-.3-.11,1.87,1.87,0,0,1-.29-.2.81.81,0,0,1-.21-.3,2.24,2.24,0,0,1-.07-.42,5.75,5.75,0,0,1-.05-.64c0-.23,0-.47,0-.73s0-.49,0-.71,0-.49,0-.69,0-.3-.07-.3,0,0-.08.11-.06.17-.1.26-.07.19-.09.28-.05.16-.06.2a13.83,13.83,0,0,0-.34,1.71A13.12,13.12,0,0,0,16,24a.62.62,0,0,0,0,.16.1.1,0,0,0,0,.07s0,0,0,0a.1.1,0,0,1,0,.07.89.89,0,0,1-.31.09l-.41,0-.15,0L15,24.31l-.25-.12a.2.2,0,0,1-.11-.18v-.38c0-.18,0-.4,0-.65s0-.53,0-.83,0-.6,0-.9,0-.6,0-.88v-1q0-.2,0-.45a5.24,5.24,0,0,0-.08-.53,2.34,2.34,0,0,0-.14-.49,1.23,1.23,0,0,0-.23-.37.48.48,0,0,0-.34-.14.93.93,0,0,0-.7.31,2.45,2.45,0,0,0-.49.74,4.69,4.69,0,0,0-.29.92,4.53,4.53,0,0,0-.09.82c0,.08,0,.19,0,.34a2.39,2.39,0,0,0,.09.45,1.16,1.16,0,0,0,.2.4.45.45,0,0,0,.37.17h.41l.16,0a.53.53,0,0,1,.15.08.18.18,0,0,1,.07.15.29.29,0,0,1-.07.18.77.77,0,0,1-.18.1l-.19,0h-.12a1.16,1.16,0,0,1-.77-.24,1.6,1.6,0,0,1-.45-.58,2.83,2.83,0,0,1-.21-.7,5.27,5.27,0,0,1-.05-.63,4.58,4.58,0,0,1,.13-1,3.57,3.57,0,0,1,.42-1.08A2.88,2.88,0,0,1,13,17a1.87,1.87,0,0,1,1.15-.35.75.75,0,0,1,.38.1,1.53,1.53,0,0,1,.31.26,1.78,1.78,0,0,1,.25.36,1.73,1.73,0,0,1,.15.36,4.55,4.55,0,0,1,.2.92c0,.36.07.74.09,1.13s0,.8,0,1.2,0,.77,0,1.1c0-.2.08-.39.12-.56s.09-.36.14-.54.1-.38.15-.59.11-.44.18-.71.13-.59.22-.92.17-.62.26-.89c0-.07.07-.11.18-.13a1,1,0,0,1,.2,0,.64.64,0,0,1,.24.06,2.69,2.69,0,0,1,.29.16,1.31,1.31,0,0,1,.24.23.36.36,0,0,1,.1.24v2.05c0,.15,0,.34,0,.57s0,.43,0,.64,0,.38,0,.52,0,.22,0,.22.11-.15.17-.43.15-.64.24-1.06.18-.88.29-1.37.21-.95.33-1.38a7.42,7.42,0,0,1,.38-1.06q.21-.42.42-.42a.43.43,0,0,1,.29.15,3.37,3.37,0,0,1,.29.35,2.21,2.21,0,0,1,.21.4.81.81,0,0,1,.09.27,1.48,1.48,0,0,1-.06.25,6,6,0,0,0-.13.65q-.06.45-.12,1.23c0,.51-.06,1.17-.06,2a4.45,4.45,0,0,0,0,.58,4.53,4.53,0,0,0,.13.64,1.63,1.63,0,0,0,.22.52.4.4,0,0,0,.33.22.28.28,0,0,0,.16-.05.43.43,0,0,0,.15-.17.13.13,0,0,1,0,.08A.5.5,0,0,1,21.16,24.22Z" transform="translate(-0.48 -1.69)"/><path d="M23.49,23.89a1.91,1.91,0,0,1-.32.17l-.35.13a1,1,0,0,1-.24,0,.93.93,0,0,1-.47-.11,3.55,3.55,0,0,0-.44-.21.12.12,0,0,0,0-.1s0,0-.08-.07v-.06a.38.38,0,0,1,.13-.26,1.61,1.61,0,0,1,.3-.21,2.53,2.53,0,0,1,.36-.12,1.31,1.31,0,0,1,.31,0,.69.69,0,0,1,.25.06,1.46,1.46,0,0,1,.3.16,1.36,1.36,0,0,1,.25.22.42.42,0,0,1,.1.24C23.63,23.78,23.58,23.83,23.49,23.89Z" transform="translate(-0.48 -1.69)"/><path d="M28.5,23.06a3.57,3.57,0,0,1-.46.66,2,2,0,0,1-.9.62,2.8,2.8,0,0,1-.89.16,1.93,1.93,0,0,1-1.75-.91A5,5,0,0,1,23.93,21a8.12,8.12,0,0,1,.16-1.68,5.87,5.87,0,0,1,.44-1.36,2.85,2.85,0,0,1,.65-.92,1.2,1.2,0,0,1,.81-.33h.25a1,1,0,0,1,.37.06,2,2,0,0,1,.29.15l.28.19a1.93,1.93,0,0,0,.36.2.82.82,0,0,1,.48.57,3.12,3.12,0,0,1,.12.88c0,.11,0,.23,0,.35a.75.75,0,0,1-.07.33.51.51,0,0,1-.19.25.63.63,0,0,1-.38.14.49.49,0,0,1-.48-.25,1,1,0,0,1-.13-.51c0-.1,0-.23,0-.38a3.4,3.4,0,0,0,0-.45,1.47,1.47,0,0,0-.09-.53.36.36,0,0,0-.37-.22.93.93,0,0,0-.73.31,2.61,2.61,0,0,0-.44.81,5.77,5.77,0,0,0-.23,1.1A11.41,11.41,0,0,0,25,20.83c0,.38,0,.74,0,1.06a3.75,3.75,0,0,0,.15.87,1.74,1.74,0,0,0,.35.66,1.63,1.63,0,0,0,.63.47,1.11,1.11,0,0,0,.37.07,1.26,1.26,0,0,0,.57-.14,1.68,1.68,0,0,0,.48-.36,2,2,0,0,0,.32-.53,1.53,1.53,0,0,0,.12-.6,1.35,1.35,0,0,1,.11-.55.4.4,0,0,1,.38-.24.25.25,0,0,1,.25.12.6.6,0,0,1,.06.27,1.47,1.47,0,0,1-.06.46A2.61,2.61,0,0,1,28.5,23.06Z" transform="translate(-0.48 -1.69)"/><path d="M31.11,23.89a1.91,1.91,0,0,1-.32.17l-.35.13a1,1,0,0,1-.24,0,.93.93,0,0,1-.47-.11,3.55,3.55,0,0,0-.44-.21.12.12,0,0,0,0-.1s0,0-.07-.07v-.06a.37.37,0,0,1,.12-.26,1.34,1.34,0,0,1,.3-.21,2.53,2.53,0,0,1,.36-.12,1.38,1.38,0,0,1,.31,0,.73.73,0,0,1,.26.06,1.4,1.4,0,0,1,.29.16,1.28,1.28,0,0,1,.24.22.37.37,0,0,1,.11.24C31.25,23.78,31.2,23.83,31.11,23.89Z" transform="translate(-0.48 -1.69)"/><path d="M40.05,19.25a3.67,3.67,0,0,1-.5.78,4.79,4.79,0,0,1-.68.67,2.7,2.7,0,0,1-.77.45,3.58,3.58,0,0,1,.6.24,2.65,2.65,0,0,1,.56.36.89.89,0,0,1,.16.22,3.78,3.78,0,0,1,.17.35c0,.13.09.25.13.37a1.17,1.17,0,0,1,0,.29.77.77,0,0,1-.28.59,2.53,2.53,0,0,1-.64.42,3.42,3.42,0,0,1-.7.24,2.34,2.34,0,0,1-.47.09h-.78a1.29,1.29,0,0,1-.37-.1L36,24l-.47-.27a1.37,1.37,0,0,1-.25-.2.73.73,0,0,0,.06-.31c0-.17,0-.37,0-.61s0-.52,0-.82V20c0-.26,0-.49,0-.71s0-.43,0-.64V18a1.1,1.1,0,0,1,.05-.39c0-.07,0-.11,0-.11a2.1,2.1,0,0,0-.58.14,6.2,6.2,0,0,0-.79.36,4.08,4.08,0,0,0-.68.48.69.69,0,0,0-.3.48,1.47,1.47,0,0,0,.06.46,1.79,1.79,0,0,1,.06.2.65.65,0,0,1-.08.35.28.28,0,0,1-.26.13.26.26,0,0,1-.23-.1.65.65,0,0,1-.13-.23,2,2,0,0,1-.05-.24,1.26,1.26,0,0,1,0-.16,1.46,1.46,0,0,1,.27-.85,2.93,2.93,0,0,1,.72-.68,5.1,5.1,0,0,1,1-.5A9.13,9.13,0,0,1,35.67,17a10.23,10.23,0,0,1,1.17-.2,7.83,7.83,0,0,1,1-.07H38A2.9,2.9,0,0,1,39,17a2,2,0,0,1,.78.59s0,0,0,0l0,0,.24.29a.72.72,0,0,1,.13.19,1.21,1.21,0,0,1,0,.18,1.77,1.77,0,0,1,0,.24A1.82,1.82,0,0,1,40.05,19.25Zm-1.26-1.69a4.73,4.73,0,0,0-1.51-.19h-.71a1.84,1.84,0,0,0-.33,0l.06.07a.24.24,0,0,1,.08.11.64.64,0,0,1,.06.23,2.26,2.26,0,0,1,0,.42v2.36c0,.06,0,.1.05.12a1.34,1.34,0,0,0,.39,0,1.6,1.6,0,0,0,.71-.21A3.42,3.42,0,0,0,39,19.19a1.75,1.75,0,0,0,.27-.92A.7.7,0,0,0,38.79,17.56Zm-.2,4.65a2.62,2.62,0,0,0-.42-.39,3.53,3.53,0,0,0-.47-.29.77.77,0,0,0-.33-.11,4.63,4.63,0,0,0-.54,0l-.29.06a.33.33,0,0,0,0,.13c0,.08,0,.19,0,.31s0,.26,0,.4v.42a1.32,1.32,0,0,0,0,.27,1,1,0,0,0,.1.29.6.6,0,0,0,.19.23.52.52,0,0,0,.33.1l.24,0a1.62,1.62,0,0,0,.37-.06,1.9,1.9,0,0,0,.47-.2A1.86,1.86,0,0,0,38.6,23a.68.68,0,0,0,.17-.45A.58.58,0,0,0,38.59,22.21Z" transform="translate(-0.48 -1.69)"/><path d="M47.74,23a3.3,3.3,0,0,1-.19.64,1.89,1.89,0,0,1-.36.58.73.73,0,0,1-.57.26.78.78,0,0,1-.62-.27,1.91,1.91,0,0,1-.34-.65,4.1,4.1,0,0,1-.16-.79c0-.28,0-.51,0-.69s0-.42,0-.63,0-.42,0-.63,0-.1-.1-.12a.57.57,0,0,0-.18,0,.34.34,0,0,0-.18,0,.22.22,0,0,0-.05.08c0,.28-.07.6-.11,1a6.72,6.72,0,0,1-.23,1.05,2.53,2.53,0,0,1-.41.84.8.8,0,0,1-.67.35,1.36,1.36,0,0,1-.3,0,1.41,1.41,0,0,1-.24-.13L43,23.7a1.71,1.71,0,0,1-.33-.63s0,.13-.08.26a2.78,2.78,0,0,1-.14.44,1.47,1.47,0,0,1-.24.4.52.52,0,0,1-.38.17,1,1,0,0,1-.9-.38,2.43,2.43,0,0,1-.29-1.12V20.08a.93.93,0,0,0,0-.1s0,0,.08,0h.18l.26.05a.88.88,0,0,1,.24.11.2.2,0,0,1,.11.17v2.09s0,.1,0,.24,0,.28,0,.43a2.26,2.26,0,0,0,.09.41c0,.12.11.19.18.19s.18-.09.24-.27a3.1,3.1,0,0,0,.17-.67q.06-.39.09-.84c0-.3,0-.58,0-.83a1.34,1.34,0,0,0,0-.19.46.46,0,0,0-.05-.21.56.56,0,0,1,.18-.05,1,1,0,0,1,.24,0H43a.86.86,0,0,1,.24,0,.34.34,0,0,1,.16.12.43.43,0,0,1,.06.24q0,.23,0,.36l0,.27c0,.08,0,.18,0,.3v.48c0,.07,0,.17,0,.3a2.38,2.38,0,0,0,.06.37,1.28,1.28,0,0,0,.11.33.21.21,0,0,0,.19.13c.15,0,.26-.09.35-.28a2.82,2.82,0,0,0,.21-.69,7.93,7.93,0,0,0,.09-.88c0-.32,0-.59,0-.83s0-.33,0-.45a2.33,2.33,0,0,0,0-.29c0-.08,0-.16,0-.24v-.27a.31.31,0,0,1,.18-.25.9.9,0,0,1,.38-.1c.18,0,.27.1.25.29v.36q0,.12.24.15l.51,0a3.74,3.74,0,0,1,.52.09.28.28,0,0,1,.23.27.74.74,0,0,1,0,.12l0,.17-.06.17,0,.12a3.5,3.5,0,0,0-.16.82,7,7,0,0,0,0,.91c0,.05,0,.13,0,.26a2.91,2.91,0,0,0,.05.4,1.89,1.89,0,0,0,.1.36q.08.15.18.15A.39.39,0,0,0,47,23.7a3,3,0,0,0,.25-.51,4.5,4.5,0,0,0,.17-.6,3.78,3.78,0,0,0,.09-.44c0-.09,0-.14.08-.16l.1,0c.11,0,.17.07.17.21l0,.33C47.81,22.58,47.78,22.73,47.74,23Z" transform="translate(-0.48 -1.69)"/><path d="M51.64,21.79c0,.2,0,.43-.09.71s-.08.32-.13.52a2.78,2.78,0,0,1-.21.57,1.63,1.63,0,0,1-.33.45.68.68,0,0,1-.48.18.9.9,0,0,1-.48-.11,1,1,0,0,1-.3-.27,2,2,0,0,1-.19-.36,3,3,0,0,0-.16-.36,1.18,1.18,0,0,0-.2-.28.48.48,0,0,0-.33-.1h-.15v.72a3.73,3.73,0,0,0,0,.43,2.73,2.73,0,0,0,.08.46l-.21,0h-.2a1,1,0,0,1-.48-.07c-.07-.05-.11-.18-.11-.41V16.68a1,1,0,0,0,0-.27.64.64,0,0,1,0-.15c0-.06,0-.1.11-.14a1,1,0,0,1,.44-.07,2.86,2.86,0,0,1,.35,0,1.86,1.86,0,0,1,.25.08.62.62,0,0,1,.19.12,7.24,7.24,0,0,0-.12.81q-.06.5-.09,1.08c0,.39-.05.78-.06,1.16s0,.74,0,1.05c0-.07.08-.18.14-.34a3.67,3.67,0,0,1,.25-.48,2.25,2.25,0,0,1,.34-.41.6.6,0,0,1,.43-.18.54.54,0,0,1,.42.16.94.94,0,0,1,.22.39,2.23,2.23,0,0,1,.08.45c0,.16,0,.29,0,.39a1.64,1.64,0,0,1-.1.54,2.4,2.4,0,0,1-.27.59,2.6,2.6,0,0,1-.41.53,1.62,1.62,0,0,1-.52.36,1.18,1.18,0,0,1,.37.19,1.15,1.15,0,0,1,.31.37.73.73,0,0,1,.09.22,1.45,1.45,0,0,0,.09.22.47.47,0,0,0,.12.18.24.24,0,0,0,.2.07.37.37,0,0,0,.31-.17A2.06,2.06,0,0,0,51,23a7,7,0,0,0,.16-.71c0-.28.08-.56.12-.86a.41.41,0,0,1,.09-.22.21.21,0,0,1,.12-.05c.13,0,.2.09.2.27A2.75,2.75,0,0,1,51.64,21.79ZM49.9,20.61c0-.08,0-.16,0-.25a1.88,1.88,0,0,0,0-.43c0-.12-.08-.18-.17-.18a.55.55,0,0,0-.4.21,2.59,2.59,0,0,0-.34.55,3.78,3.78,0,0,0-.24.74,3.86,3.86,0,0,0-.09.81.1.1,0,0,0,0,.08s.06,0,.14,0a.77.77,0,0,0,.4-.11,1.08,1.08,0,0,0,.33-.31,1.55,1.55,0,0,0,.24-.44,1.47,1.47,0,0,0,.12-.49A1.49,1.49,0,0,0,49.9,20.61Z" transform="translate(-0.48 -1.69)"/><path d="M55.83,22.91a2.65,2.65,0,0,1-.27.6,1.66,1.66,0,0,1-.44.51,1,1,0,0,1-.66.23.84.84,0,0,1-.59-.22,1.25,1.25,0,0,1-.33-.59,3.75,3.75,0,0,1-.15-.91c0-.35,0-.73,0-1.15v-.27a2.16,2.16,0,0,1,0-.28,3.8,3.8,0,0,0-.29.66,7.2,7.2,0,0,0-.26.86c-.08.31-.14.61-.19.93a7.34,7.34,0,0,0-.08.89l-.26.06a1,1,0,0,1-.32,0h-.17l-.19-.05a.54.54,0,0,1-.16-.1.27.27,0,0,1-.07-.18.42.42,0,0,1,0-.1,1.14,1.14,0,0,0,0-.34v-6.9a.5.5,0,0,0,0-.22.25.25,0,0,1,0-.15s0,0,.09-.07a.59.59,0,0,1,.19,0,1.66,1.66,0,0,1,.22,0h.19a1.58,1.58,0,0,1,.63.13c0,.22-.07.5-.11.86s-.07.72-.1,1.1-.06.74-.07,1.09,0,.62,0,.81v.37c0,.14,0,.37,0,.69s0,.75,0,1.32a1.31,1.31,0,0,1,.05-.23c0-.15.08-.33.14-.54s.12-.45.2-.7a6.19,6.19,0,0,1,.24-.69,3.81,3.81,0,0,1,.25-.53c.09-.13.18-.21.26-.21a1.56,1.56,0,0,1,.36.06.4.4,0,0,1,.3.19.53.53,0,0,0,.1.2.75.75,0,0,0,.09.09.6.6,0,0,1,.08.08.15.15,0,0,1,0,.1,2,2,0,0,1-.05.24c0,.14,0,.31-.08.51s-.06.43-.08.68,0,.48,0,.72a3.34,3.34,0,0,0,.09.83c.05.23.16.35.32.35a.57.57,0,0,0,.4-.15,1.11,1.11,0,0,0,.26-.36,2.76,2.76,0,0,0,.15-.46c0-.16.07-.31.09-.44s.1-.25.18-.25a.2.2,0,0,1,.19.1.58.58,0,0,1,0,.25v.16A2.5,2.5,0,0,1,55.83,22.91Z" transform="translate(-0.48 -1.69)"/><path d="M63,22.53a5.09,5.09,0,0,1-.23.85,2.8,2.8,0,0,1-.39.73.69.69,0,0,1-.55.32.86.86,0,0,1-.65-.26,1.71,1.71,0,0,1-.38-.61,3.36,3.36,0,0,1-.17-.79,7.54,7.54,0,0,1,0-.78,6.24,6.24,0,0,1,0-.66,3.64,3.64,0,0,0,0-.43c0-.14,0-.23-.07-.27a.62.62,0,0,0-.33-.07c-.08,0-.11.09-.11.27v.3c0,.14,0,.32,0,.54a4.8,4.8,0,0,1,0,.51c0,.16,0,.35-.08.6a4.38,4.38,0,0,1-.19.71,2,2,0,0,1-.32.58.57.57,0,0,1-.49.25,1,1,0,0,1-.71-.31,1.32,1.32,0,0,1-.36-.81,1.93,1.93,0,0,1-.12.44,1.88,1.88,0,0,1-.24.44,1.26,1.26,0,0,1-.32.33.64.64,0,0,1-.39.14.34.34,0,0,1-.2-.06.4.4,0,0,0-.22-.06.78.78,0,0,1-.57-.22,1.48,1.48,0,0,1-.33-.54,2.43,2.43,0,0,1-.16-.67c0-.24,0-.45,0-.62s0-.39,0-.62a6.21,6.21,0,0,1,.07-.73c0-.25.08-.49.13-.73a2.59,2.59,0,0,1,.25-.63,1.3,1.3,0,0,1,.38-.45.8.8,0,0,1,.52-.18h0a2.26,2.26,0,0,1,.34.08,2.65,2.65,0,0,1,.31.13l.17.07.39.18a1,1,0,0,1,.29.25,1.09,1.09,0,0,1,.18.42,3.56,3.56,0,0,1,.06.73v.23l.13.05.15.06a.27.27,0,0,1,.12.09.25.25,0,0,1,0,.16.27.27,0,0,1,0,.08s0,.06,0,.07a.65.65,0,0,0-.06.21,2,2,0,0,0,0,.26,2.35,2.35,0,0,0,0,.26v.22c0,.05,0,.14,0,.27a2.69,2.69,0,0,0,0,.4,1.58,1.58,0,0,0,.09.36c0,.11.1.16.17.16s.32-.24.41-.71a10.2,10.2,0,0,0,.14-2c0-.26,0-.54,0-.82s0-.59-.05-.93a.41.41,0,0,1,0-.07.19.19,0,0,1,.09-.09.71.71,0,0,1,.21-.08,1.77,1.77,0,0,1,.37,0,.18.18,0,0,1,.2.21v.46a.61.61,0,0,0,0,.24q0,.12.21.12l.75-.06a.55.55,0,0,1,.33.06.44.44,0,0,1,0,.23,2.18,2.18,0,0,1,0,.42c0,.15-.05.29-.07.43s-.08.59-.11.88a8.49,8.49,0,0,0-.05.88s0,.13,0,.25a2.21,2.21,0,0,0,0,.35,1.5,1.5,0,0,0,.08.32c0,.09.09.14.16.14s.24-.09.34-.27a2.86,2.86,0,0,0,.24-.65,6.24,6.24,0,0,0,.17-.82c0-.29.08-.55.1-.77a.24.24,0,0,1,.12,0c.15,0,.23,0,.25.1a.69.69,0,0,1,0,.28A4.68,4.68,0,0,1,63,22.53Zm-5.26-2a1,1,0,0,0-.09-.33.68.68,0,0,0-.18-.26.36.36,0,0,0-.28-.11.67.67,0,0,0-.51.22,1.59,1.59,0,0,0-.36.58,3.2,3.2,0,0,0-.21.81,5.29,5.29,0,0,0-.07.9,4.26,4.26,0,0,0,0,.63,2.71,2.71,0,0,0,.11.54,1.17,1.17,0,0,0,.19.37.31.31,0,0,0,.25.14.48.48,0,0,0,.38-.18,1.23,1.23,0,0,0,.24-.44,3,3,0,0,0,.13-.59c0-.22.06-.43.08-.64s0-.39.06-.56a1.41,1.41,0,0,1,.09-.39s0-.06.05-.07l0-.06,0-.09a.63.63,0,0,0,0-.16A1.89,1.89,0,0,0,57.75,20.51Z" transform="translate(-0.48 -1.69)"/><path d="M62.69,20.72c0-.42,0-.81,0-1.18,0-.06-.06-.1-.19-.13l-.43-.07a1.8,1.8,0,0,1-.43-.11.26.26,0,0,1-.19-.26c0-.1.1-.16.31-.18s.52,0,.92,0c0,0,.06-.05.07-.15a3.36,3.36,0,0,0,0-.36c0-.15,0-.31,0-.48s0-.32,0-.47,0-.27,0-.37,0-.14.08-.14l.22,0,.32.07a1.75,1.75,0,0,1,.3.1c.08,0,.12.08.12.13l-.13,1.56c0,.05,0,.08.13.1a1.32,1.32,0,0,0,.32,0h.42a2.77,2.77,0,0,1,.42,0,.86.86,0,0,1,.32.12.25.25,0,0,1,.13.23.45.45,0,0,1,0,.08s0,.05-.06.05l-.07,0s-.1,0-.22,0h-.27l-.45,0-.44.05c-.13,0-.21.05-.22.08a1.28,1.28,0,0,0,0,.28c0,.17,0,.4,0,.68s0,.6,0,1,0,.75,0,1.15a3.15,3.15,0,0,0,0,.44,1.43,1.43,0,0,0,.07.39.81.81,0,0,0,.12.28.23.23,0,0,0,.19.11.41.41,0,0,0,.29-.13,1.25,1.25,0,0,0,.24-.36,4.23,4.23,0,0,0,.19-.51c0-.2.1-.39.14-.59a.76.76,0,0,1,.09-.26.16.16,0,0,1,.14-.08.2.2,0,0,1,.15.06.31.31,0,0,1,.07.24.51.51,0,0,1,0,.16c0,.14-.07.34-.13.59a4.16,4.16,0,0,1-.28.74,3,3,0,0,1-.42.65.79.79,0,0,1-.59.27.92.92,0,0,1-.57-.18,1.53,1.53,0,0,1-.4-.52,3.11,3.11,0,0,1-.25-.78,5.83,5.83,0,0,1-.08-1V22C62.66,21.56,62.67,21.14,62.69,20.72Z" transform="translate(-0.48 -1.69)"/><path d="M66.87,24.13a1.08,1.08,0,0,1-.33.31,1.73,1.73,0,0,1-.41.2,1.34,1.34,0,0,1-.36.06.2.2,0,0,1-.1,0,.11.11,0,0,1-.08-.07l.17,0a1.17,1.17,0,0,0,.2-.06.44.44,0,0,0,.15-.12.28.28,0,0,0,.06-.18s0-.08-.15-.11L65.69,24a1.79,1.79,0,0,1-.32-.13.23.23,0,0,1-.15-.22.08.08,0,0,1,0-.07l0-.1a.5.5,0,0,1,.14-.27,1,1,0,0,1,.22-.18A1.34,1.34,0,0,1,65.9,23l.23,0a1,1,0,0,1,.29.05,1.18,1.18,0,0,1,.29.16.85.85,0,0,1,.21.25.63.63,0,0,1,.09.33A.68.68,0,0,1,66.87,24.13Z" transform="translate(-0.48 -1.69)"/><path d="M74.5,19.2a6.1,6.1,0,0,1-.68.93,12.56,12.56,0,0,1-.88.92l-.88.84-.68.68c-.18.19-.27.33-.27.43s.06.08.17.1l.24,0h2a2.56,2.56,0,0,1,.42,0,.46.46,0,0,1,.26.1.39.39,0,0,1,.14.25,1.9,1.9,0,0,1,0,.48c0,.09,0,.13-.06.13l-.11,0H73l-1.09,0-1.1,0-.41,0A1.3,1.3,0,0,1,70,24a1,1,0,0,1-.32-.23.67.67,0,0,1-.13-.41.76.76,0,0,1,0-.19,1.66,1.66,0,0,1,.1-.29c0-.1.08-.2.12-.28a.46.46,0,0,1,.11-.18c.12-.13.26-.25.39-.37l.4-.34.52-.46c.2-.18.42-.38.64-.6s.45-.44.67-.68a6.71,6.71,0,0,0,.6-.74,4.11,4.11,0,0,0,.43-.75,1.73,1.73,0,0,0,.16-.71.72.72,0,0,0-.24-.59,1,1,0,0,0-.61-.2,1.81,1.81,0,0,0-.85.19,1.43,1.43,0,0,0-.47.44,2,2,0,0,0-.25.55c-.06.2-.12.38-.19.56a1.27,1.27,0,0,1-.27.42.7.7,0,0,1-.51.17.46.46,0,0,1-.38-.14.67.67,0,0,1-.1-.39,1.81,1.81,0,0,1,.25-.91,2.76,2.76,0,0,1,.66-.79,3.43,3.43,0,0,1,.92-.56,2.72,2.72,0,0,1,1-.21,1.24,1.24,0,0,1,.57.18A3.55,3.55,0,0,1,74,17a2.83,2.83,0,0,1,.55.65,1.42,1.42,0,0,1,.23.73A1.68,1.68,0,0,1,74.5,19.2Z" transform="translate(-0.48 -1.69)"/><path d="M80.78,22.07a4.37,4.37,0,0,1-.25.8,2.52,2.52,0,0,1-.41.69,1.91,1.91,0,0,1-.89.58.88.88,0,0,1-.31.07h-.66a2.08,2.08,0,0,1-.39-.05l-.4-.09-.58-.18a1.7,1.7,0,0,1-.51-.31,2,2,0,0,1-.46-.61,4,4,0,0,1-.28-.75,4.32,4.32,0,0,1-.14-.8,6.8,6.8,0,0,1,0-.76q0-.32,0-.72a6.61,6.61,0,0,1,.13-.84,6.28,6.28,0,0,1,.23-.85,3.28,3.28,0,0,1,.37-.75,1.74,1.74,0,0,1,.55-.53,1.29,1.29,0,0,1,.74-.21l.19,0,.25.05.26.06.22.06.45.08.38.11a1.2,1.2,0,0,1,.34.17,2,2,0,0,1,.35.31,2.21,2.21,0,0,1,.37.59,4.5,4.5,0,0,1,.29.78c.08.28.14.55.19.82a4.72,4.72,0,0,1,.06.7v.79A3.58,3.58,0,0,1,80.78,22.07Zm-.85-1.93a6,6,0,0,0-.11-.82,6.39,6.39,0,0,0-.22-.78,1.47,1.47,0,0,0-.36-.57,1.16,1.16,0,0,0-.5-.27,2.74,2.74,0,0,0-.56-.06,1.3,1.3,0,0,0-.89.3,1.92,1.92,0,0,0-.49.74,3.49,3.49,0,0,0-.22.94,7.72,7.72,0,0,0-.06.92,7.62,7.62,0,0,0,.06.87,4.52,4.52,0,0,0,.23,1,2.45,2.45,0,0,0,.47.8,1,1,0,0,0,.78.32h.5a.83.83,0,0,0,.5-.16,1.39,1.39,0,0,0,.4-.4,2.87,2.87,0,0,0,.28-.52,2.47,2.47,0,0,0,.14-.51c0-.18.05-.36.07-.54s0-.36,0-.54S80,20.42,79.93,20.14Z" transform="translate(-0.48 -1.69)"/><path d="M86.16,19.2a5.49,5.49,0,0,1-.68.93,12.56,12.56,0,0,1-.88.92l-.88.84c-.27.26-.5.49-.68.68s-.27.33-.27.43.06.08.17.1l.24,0h2a2.49,2.49,0,0,1,.41,0,.41.41,0,0,1,.26.1.44.44,0,0,1,.15.25A2,2,0,0,1,86,24c0,.09,0,.13-.06.13a.24.24,0,0,1-.1,0H84.68l-1.09,0-1.09,0-.42,0a1.46,1.46,0,0,1-.41-.11,1.09,1.09,0,0,1-.32-.23.66.66,0,0,1-.12-.41.63.63,0,0,1,0-.19c0-.1.06-.19.1-.29s.08-.2.12-.28a.63.63,0,0,1,.11-.18l.39-.37.4-.34.52-.46c.21-.18.42-.38.64-.6s.45-.44.67-.68a5.73,5.73,0,0,0,.6-.74,4.11,4.11,0,0,0,.43-.75,1.73,1.73,0,0,0,.16-.71.72.72,0,0,0-.24-.59.93.93,0,0,0-.61-.2,1.81,1.81,0,0,0-.85.19,1.43,1.43,0,0,0-.47.44,2,2,0,0,0-.25.55c-.06.2-.12.38-.19.56a1,1,0,0,1-.27.42.7.7,0,0,1-.51.17.44.44,0,0,1-.37-.14.6.6,0,0,1-.11-.39,1.81,1.81,0,0,1,.25-.91,2.93,2.93,0,0,1,.66-.79,3.43,3.43,0,0,1,.92-.56,2.77,2.77,0,0,1,1-.21,1.31,1.31,0,0,1,.57.18,3.49,3.49,0,0,1,.66.47,2.83,2.83,0,0,1,.55.65,1.33,1.33,0,0,1,.23.73A1.68,1.68,0,0,1,86.16,19.2Z" transform="translate(-0.48 -1.69)"/><path d="M92.44,22.07a4.35,4.35,0,0,1-.24.8,2.83,2.83,0,0,1-.42.69,1.5,1.5,0,0,1-.58.46l-.3.12a.93.93,0,0,1-.32.07h-.66a2.08,2.08,0,0,1-.39-.05l-.4-.09-.58-.18a1.7,1.7,0,0,1-.51-.31,2.15,2.15,0,0,1-.45-.61,4,4,0,0,1-.29-.75,7,7,0,0,1-.14-.8,6.8,6.8,0,0,1,0-.76q0-.32,0-.72c0-.27.07-.55.13-.84a8.19,8.19,0,0,1,.23-.85,2.94,2.94,0,0,1,.38-.75,1.82,1.82,0,0,1,.54-.53,1.31,1.31,0,0,1,.74-.21l.19,0,.25.05.27.06.21.06.45.08.38.11a1.26,1.26,0,0,1,.35.17,2.36,2.36,0,0,1,.35.31,2.5,2.5,0,0,1,.37.59,5.49,5.49,0,0,1,.29.78,6.37,6.37,0,0,1,.18.82,3.76,3.76,0,0,1,.07.7v.79A3.63,3.63,0,0,1,92.44,22.07Zm-.84-1.93a6,6,0,0,0-.12-.82,5,5,0,0,0-.22-.78,1.58,1.58,0,0,0-.35-.57,1.2,1.2,0,0,0-.51-.27,2.67,2.67,0,0,0-.56-.06,1.25,1.25,0,0,0-.88.3,1.83,1.83,0,0,0-.5.74,3.92,3.92,0,0,0-.22.94,7.29,7.29,0,0,0,0,1.79,4.5,4.5,0,0,0,.22,1,2.64,2.64,0,0,0,.47.8,1,1,0,0,0,.78.32h.5a.84.84,0,0,0,.51-.16,1.49,1.49,0,0,0,.39-.4,2,2,0,0,0,.28-.52,2.47,2.47,0,0,0,.14-.51,3.33,3.33,0,0,0,.07-.54c0-.18,0-.36,0-.54S91.62,20.42,91.6,20.14Z" transform="translate(-0.48 -1.69)"/></svg>