<svg xmlns="http://www.w3.org/2000/svg" viewBox="0 0 92.88 23.29"><path d="M20.27 3.02a1 1 0 0 1 .37.21 1.3 1.3 0 0 1 .62.37 1 1 0 0 1 .26.71 1.64 1.64 0 0 1-.2.8 1.9 1.9 0 0 1-.54.62 2.4 2.4 0 0 1-.76.4 2.9 2.9 0 0 1-.89.14 1.73 1.73 0 0 1-1.15-.38 1.46 1.46 0 0 1-.46-1.16 2 2 0 0 1 .12-.7 2 2 0 0 1 .37-.6 1.8 1.8 0 0 1 .61-.44 2.1 2.1 0 0 1 .9-.16 1.2 1.2 0 0 1 .39.06zm7.75-.71a.4.4 0 0 1-.12.1.4.4 0 0 1-.15 0h-.12a.3.3 0 0 1-.28-.19c-.06-.14-.13-.28-.21-.44a1.5 1.5 0 0 0-.38-.43 1.2 1.2 0 0 0-.76-.2 1.1 1.1 0 0 0-.55.14 1.3 1.3 0 0 0-.4.33 1.4 1.4 0 0 0-.24.45 1.7 1.7 0 0 0-.08.49 1.8 1.8 0 0 0 .14.7 2.2 2.2 0 0 0 .39.6 4.6 4.6 0 0 0 .6.55l.75.57c.24.17.46.34.68.52a4 4 0 0 1 .59.56 2.6 2.6 0 0 1 .41.64 1.7 1.7 0 0 1 .16.74 1.06 1.06 0 0 1-.25.73 1.7 1.7 0 0 1-.62.46 2.6 2.6 0 0 1-.82.24 5 5 0 0 1-.86.07 7 7 0 0 1-.89-.07 3.5 3.5 0 0 1-.87-.25 2.1 2.1 0 0 1-.62-.43 1 1 0 0 1-.26-.67.66.66 0 0 1 .26-.56 1.5 1.5 0 0 1 .71-.3c0 .05-.05.13-.1.24a1.3 1.3 0 0 0-.08.48.7.7 0 0 0 .22.54 1.45 1.45 0 0 0 .51.31 2.7 2.7 0 0 0 .62.14h.52a2 2 0 0 0 .37-.05 2 2 0 0 0 .46-.15 1.3 1.3 0 0 0 .39-.25.53.53 0 0 0 .16-.39.8.8 0 0 0-.11-.38 2.6 2.6 0 0 0-.31-.41 4.5 4.5 0 0 0-.48-.43c-.17-.15-.35-.29-.54-.44s-.56-.43-.83-.66a6 6 0 0 1-.73-.69 3.7 3.7 0 0 1-.53-.75 1.84 1.84 0 0 1-.2-.82 2.4 2.4 0 0 1 .24-1.12 2.24 2.24 0 0 1 .64-.75 2.3 2.3 0 0 1 .86-.42 3.3 3.3 0 0 1 .91-.14 4.3 4.3 0 0 1 .7.06 4 4 0 0 1 .67.15 1.5 1.5 0 0 1 .5.27.46.46 0 0 1 .2.38.53.53 0 0 1-.11.31.52.52 0 0 0-.12.33.4.4 0 0 1-.04.29m8.86 5.47a.6.6 0 0 1-.17.15l-.19.09h-.19a.6.6 0 0 1-.44-.17 1.1 1.1 0 0 1-.25-.42 2.3 2.3 0 0 1-.12-.53V5.66c-.08.17-.16.35-.24.56s-.13.41-.19.62-.1.44-.14.65-.07.42-.1.61a1.2 1.2 0 0 1-.33.06h-.16a1 1 0 0 1-.2 0h-.17a.09.09 0 0 1-.06-.08.3.3 0 0 1 0-.09.5.5 0 0 0 0-.12V5.56l-.41.62a7 7 0 0 1-.33.87 3.3 3.3 0 0 1-.42.75.72.72 0 0 1-.53.31.83.83 0 0 1-.72-.33 1.5 1.5 0 0 1-.28-.77 2 2 0 0 1-.12.43 2 2 0 0 1-.23.43 1.1 1.1 0 0 1-.31.33.76.76 0 0 1-.42.12.8.8 0 0 1-.33-.07.9.9 0 0 0-.29-.09.64.64 0 0 1-.43-.27 1.7 1.7 0 0 1-.24-.51 3 3 0 0 1-.12-.6v-.51a9 9 0 0 1 .08-1.13 5.6 5.6 0 0 1 .24-1.09 2.4 2.4 0 0 1 .45-.82.82.82 0 0 1 .64-.31.66.66 0 0 1 .36.09l.34.14a3 3 0 0 1 .4.16 1.1 1.1 0 0 1 .33.2.8.8 0 0 1 .21.32 1.4 1.4 0 0 1 .07.5v.51a.4.4 0 0 1 0 .11.1.1 0 0 0 .06.1h.15a.5.5 0 0 1 .16.09.2.2 0 0 1 .06.16.24.24 0 0 1 0 .11l-.07.24c0 .11 0 .26-.07.44a6 6 0 0 0 0 .66 1.6 1.6 0 0 0 .09.59c.07.14.14.21.23.21s.04-.04.17-.24a5.4 5.4 0 0 0 .3-.7c.1-.28.21-.59.31-.93s.2-.67.3-1l.24-.84a5 5 0 0 1 .17-.51.25.25 0 0 1 .26-.17.5.5 0 0 1 .18 0 .8.8 0 0 1 .21.15.6.6 0 0 1 .18.12.23.23 0 0 1 .08.16 1 1 0 0 1 0 .24 1.5 1.5 0 0 0-.07.37v1.97c0-.12.11-.29.19-.51l.26-.69c.09-.24.17-.44.25-.62s.14-.26.18-.26h.19a1.6 1.6 0 0 1 .3.06l.28.12a.21.21 0 0 1 .12.17.2.2 0 0 1 0 .09v2.73a.7.7 0 0 0 .1.26.2.2 0 0 0 .17.11h.1a.1.1 0 0 0 .08-.06.07.07 0 0 1 0 .06.28.28 0 0 1-.15.15m-5.71-3.4a2 2 0 0 0-.1-.33 1.3 1.3 0 0 0-.18-.27.4.4 0 0 0-.28-.11.68.68 0 0 0-.55.29 2.5 2.5 0 0 0-.33.69 4.6 4.6 0 0 0-.16.84V6.6a5 5 0 0 0 0 .52 1.5 1.5 0 0 0 .15.46.31.31 0 0 0 .29.19.56.56 0 0 0 .39-.17 1.4 1.4 0 0 0 .3-.49 3.6 3.6 0 0 0 .2-.76 8 8 0 0 0 .12-1 1 1 0 0 1 0-.29l.06-.12.06-.1a.5.5 0 0 0 0-.21 2 2 0 0 0 .03-.25M43.6 6.14a.64.64 0 0 1-.34.09 13 13 0 0 1-.16 1.64 14 14 0 0 1-.37 1.65 9 9 0 0 1-.32.9 6.3 6.3 0 0 1-.55 1 3.5 3.5 0 0 1-.78.84 1.64 1.64 0 0 1-1 .35 1 1 0 0 1-.27 0 .5.5 0 0 1-.27-.13 3 3 0 0 1-.42-.44 4.5 4.5 0 0 1-.37-.52 3.4 3.4 0 0 1-.26-.55 1.6 1.6 0 0 1-.09-.52 1.7 1.7 0 0 1 .12-.57 6 6 0 0 1 .29-.68c.12-.23.24-.44.36-.64a6 6 0 0 1 .35-.5c.29-.39.53-.7.72-.92s.37-.4.52-.54.28-.25.41-.35.27-.22.42-.36c0 0-.05-.08-.15-.17a2 2 0 0 1-.39-.41 4 4 0 0 1-.35-.83 4.8 4.8 0 0 1-.18-1.34 4 4 0 0 1 .11-1 3.2 3.2 0 0 1 .35-.83 1.9 1.9 0 0 1 .48-.59 1 1 0 0 1 .6-.21l.86-.06a.21.21 0 0 1 .19.09.4.4 0 0 1 .06.22v.44a3.7 3.7 0 0 0 .05.66 3 3 0 0 1 .06.5v3c.3.08.47.21.5.4v.07a.26.26 0 0 1-.18.31m-1.51.43h-.08a.85.85 0 0 0-.47.21 3.7 3.7 0 0 0-.57.56 9 9 0 0 0-.6.78 9 9 0 0 0-.54.89 6 6 0 0 0-.37.87 2.3 2.3 0 0 0-.15.74 1.1 1.1 0 0 0 .19.64.72.72 0 0 0 .62.27.83.83 0 0 0 .64-.33 3.1 3.1 0 0 0 .51-.84 7 7 0 0 0 .38-1.11c.1-.41.19-.79.26-1.14s.12-.67.15-.93.05-.41.05-.47a.3.3 0 0 0-.02-.14m.06-4.73c0-.2 0-.29-.15-.29a.5.5 0 0 0-.25.08.9.9 0 0 0-.23.28 1.8 1.8 0 0 0-.19.51 4.4 4.4 0 0 0-.07.8 5 5 0 0 0 .09 1 3.3 3.3 0 0 0 .21.74 1.6 1.6 0 0 0 .26.46.38.38 0 0 0 .26.17s.06 0 .06-.09V2.39zm7.12 6.39a1.9 1.9 0 0 1-.84.19h-.35a2 2 0 0 1-.36-.11.7.7 0 0 1-.28-.17.33.33 0 0 1-.11-.27.43.43 0 0 1 .19-.36.67.67 0 0 1 .39-.11.8.8 0 0 1 .33.09.74.74 0 0 0 .31.09.41.41 0 0 0 .38-.19.9.9 0 0 0 .12-.47 2.3 2.3 0 0 0-.13-.61c0-.22-.12-.45-.19-.68s-.13-.48-.19-.74a5 5 0 0 1-.11-.79c0 .29-.11.59-.17.9a2.8 2.8 0 0 1-.35.86 1.3 1.3 0 0 1-.2.28l-.19.17-.1.08h-.09v.38a1.5 1.5 0 0 1-.12.43 2.3 2.3 0 0 1-.26.52 1.6 1.6 0 0 1-.39.43.9.9 0 0 1-.55.18 1.8 1.8 0 0 1-.49-.02 3 3 0 0 1-.47-.2 1.7 1.7 0 0 1-.53-.41 1.5 1.5 0 0 1-.27-.46 1.7 1.7 0 0 1-.13-.49 5 5 0 0 1 0-.5 5 5 0 0 1 .08-.82 7 7 0 0 1 .2-.82 5 5 0 0 1 .29-.7 2 2 0 0 1 .32-.48.74.74 0 0 1 .33-.22.9.9 0 0 1 .33-.07.8.8 0 0 1 .36.09 2 2 0 0 1 .36.24 3 3 0 0 1 .34.31c.11.12.21.23.3.35a.9.9 0 0 1 .18.4 5 5 0 0 1 .09.54v.7a1.4 1.4 0 0 0 .37-.59 5 5 0 0 0 .22-.77c.06-.27.1-.53.14-.79a5 5 0 0 1 .13-.64.16.16 0 0 1 .14-.14h.61l.27.07.23.1a.17.17 0 0 1 .1.13.2.2 0 0 1 0 .09.7.7 0 0 0-.06.12.6.6 0 0 0-.06.23 2 2 0 0 0 0 .4 3 3 0 0 0 .11.78c.06.26.13.51.21.77s.15.51.22.75a2.5 2.5 0 0 1 .1.7 1.34 1.34 0 0 1-.12.6 1.24 1.24 0 0 1-.64.65m-3-1.39a2.3 2.3 0 0 1-.39.05 2 2 0 0 1-.42-.05 1.3 1.3 0 0 1-.41-.18v.24a1.4 1.4 0 0 0 0 .27.6.6 0 0 0 .11.25.53.53 0 0 0 .21.18.7.7 0 0 0 .34.08.83.83 0 0 0 .43-.11.9.9 0 0 0 .26-.26 1.3 1.3 0 0 0 .12-.32.9.9 0 0 0 .06-.31 1 1 0 0 1-.36.16zm.43-1.28v-.37a4 4 0 0 0-.07-.45 2.6 2.6 0 0 0-.18-.43.9.9 0 0 0-.19-.32.34.34 0 0 0-.28-.13.53.53 0 0 0-.32.14 1.3 1.3 0 0 0-.28.36 2.4 2.4 0 0 0-.21.49 2 2 0 0 0-.07.53 1 1 0 0 0 .18.68.76.76 0 0 0 .63.22 1.4 1.4 0 0 0 .54-.09c.13-.07.2-.12.2-.16v-.47zm7.17 1.31a2.5 2.5 0 0 1-.34.69 2.1 2.1 0 0 1-.58.54 1.65 1.65 0 0 1-.85.21 1.6 1.6 0 0 1-.79-.17 1.54 1.54 0 0 1-.53-.45 1.8 1.8 0 0 1-.26-.68 3.6 3.6 0 0 1-.09-.82 5 5 0 0 1 .09-.88 4.8 4.8 0 0 1 .3-1 2.5 2.5 0 0 1 .52-.73 1.1 1.1 0 0 1 .72-.27.9.9 0 0 1 .4.09 1.4 1.4 0 0 1 .34.23 1.1 1.1 0 0 1 .23.34 1.4 1.4 0 0 1 .09.34v.17a2.5 2.5 0 0 1-.09.63 2.4 2.4 0 0 1-.28.64 1.9 1.9 0 0 1-.43.56 1 1 0 0 1-.6.2h-.32v.35a.7.7 0 0 0 0 .24 1.1 1.1 0 0 0 .16.3 1.2 1.2 0 0 0 .28.27.83.83 0 0 0 .43.11 1 1 0 0 0 .93-.49 2 2 0 0 0 .32-.57c0-.18.09-.35.12-.52a2 2 0 0 1 .07-.23.14.14 0 0 1 .12-.06q.18 0 .18.21v.08a2.4 2.4 0 0 1-.14.67M51.3 2.81a.4.4 0 0 1-.19.13h-.06a.5.5 0 0 0-.08-.12h-.05v-.3a.6.6 0 0 1 0-.15.6.6 0 0 1 .14-.15l.54-.48.53-.43c.18-.13.33-.24.47-.32a.7.7 0 0 1 .32-.13.14.14 0 0 1 .12.07 1.6 1.6 0 0 1 0 .41.6.6 0 0 1 0 .27.34.34 0 0 1-.12.12l-.18.06a.7.7 0 0 0-.25.1l-1 .7a2 2 0 0 1-.19.22m1.22 1.33a.19.19 0 0 0-.19-.11.47.47 0 0 0-.38.23 2 2 0 0 0-.25.52 3.4 3.4 0 0 0-.18.53 1.8 1.8 0 0 0 0 .36.5.5 0 0 0 0 .18s.05.06.12.06h.06a.54.54 0 0 0 .41-.18 1.4 1.4 0 0 0 .27-.43 2.5 2.5 0 0 0 .14-.45 3 3 0 0 0 0-.44v-.1a.4.4 0 0 0 0-.17m3 3.9a1.4 1.4 0 0 1-.33.31 1.7 1.7 0 0 1-.41.2 1.3 1.3 0 0 1-.36.06.2.2 0 0 1-.1 0 .11.11 0 0 1-.08-.07h.17a1 1 0 0 0 .2-.06.4.4 0 0 0 .14-.12.23.23 0 0 0 .06-.18c0-.05 0-.08-.15-.11l-.32-.09a2 2 0 0 1-.32-.13.23.23 0 0 1-.15-.22v-.17a.57.57 0 0 1 .13-.27 1 1 0 0 1 .23-.18 1.3 1.3 0 0 1 .29-.14h.23a.7.7 0 0 1 .29.05 1 1 0 0 1 .28.16.8.8 0 0 1 .22.25.6.6 0 0 1 .08.33.67.67 0 0 1-.1.38M63 6.97a3.1 3.1 0 0 1-.46.66 2 2 0 0 1-.9.62 2.8 2.8 0 0 1-.89.16A1.93 1.93 0 0 1 59 7.5a5 5 0 0 1-.57-2.63 8 8 0 0 1 .16-1.68 6 6 0 0 1 .44-1.36 2.9 2.9 0 0 1 .65-.92 1.2 1.2 0 0 1 .84-.33h.25a1 1 0 0 1 .37.06 2 2 0 0 1 .29.15l.28.19a2 2 0 0 0 .36.2.82.82 0 0 1 .48.57 3.1 3.1 0 0 1 .12.88v.35a.9.9 0 0 1-.15.33.64.64 0 0 1-.19.25.57.57 0 0 1-.38.13.5.5 0 0 1-.43-.24 1 1 0 0 1-.13-.51v-.38a3 3 0 0 0 0-.45 1.5 1.5 0 0 0-.09-.53.36.36 0 0 0-.37-.22.93.93 0 0 0-.73.31 2.6 2.6 0 0 0-.44.81 6 6 0 0 0-.23 1.09q-.01.6-.01 1.17V5.8a3.8 3.8 0 0 0 .15.87 1.9 1.9 0 0 0 .34.66 1.75 1.75 0 0 0 .64.47 1.1 1.1 0 0 0 .37.07 1.26 1.26 0 0 0 .57-.14 1.4 1.4 0 0 0 .47-.37 1.7 1.7 0 0 0 .33-.52 1.6 1.6 0 0 0 .12-.6 1.35 1.35 0 0 1 .11-.55.39.39 0 0 1 .38-.24.25.25 0 0 1 .25.12.6.6 0 0 1 .06.27 1.5 1.5 0 0 1-.06.46 2.6 2.6 0 0 1-.25.67m5.18.17a1.7 1.7 0 0 1-.25.43 1.7 1.7 0 0 1-.34.36.77.77 0 0 1-.44.14.86.86 0 0 1-.63-.27 1.33 1.33 0 0 1-.33-.78c0 .12-.1.27-.17.44a2 2 0 0 1-.24.47 1.4 1.4 0 0 1-.33.36.67.67 0 0 1-.44.15h-.43a.65.65 0 0 1-.48-.19 1.35 1.35 0 0 1-.32-.47 2.4 2.4 0 0 1-.17-.63 3.7 3.7 0 0 1-.09-.72 12 12 0 0 1 .08-1.37 5 5 0 0 1 .26-1.14 2.06 2.06 0 0 1 .46-.79 1 1 0 0 1 .7-.3 1.7 1.7 0 0 1 .37 0l.23.1.23.11a1.8 1.8 0 0 0 .36.1.8.8 0 0 1 .35.34 1.2 1.2 0 0 1 .13.43 2.4 2.4 0 0 1 0 .47 2 2 0 0 0 0 .49l.13.06a.3.3 0 0 1 .12.08.18.18 0 0 1 .06.14v.16a2.3 2.3 0 0 0-.15.55v.57a2.4 2.4 0 0 0 0 .37 2 2 0 0 0 .06.37.8.8 0 0 0 .12.29.28.28 0 0 0 .22.11.36.36 0 0 0 .26-.14 1.8 1.8 0 0 0 .19-.33c0-.13.09-.25.13-.38s.06-.22.07-.29 0-.14.11-.14a.17.17 0 0 1 .12.06.4.4 0 0 1 .05.24v.09a.4.4 0 0 1 0 .1 1.7 1.7 0 0 1 0 .36m-2.12-2.65a1.7 1.7 0 0 0-.09-.34.7.7 0 0 0-.18-.26.42.42 0 0 0-.27-.11.65.65 0 0 0-.55.3 3 3 0 0 0-.33.72 4 4 0 0 0-.15.86 7 7 0 0 0 0 .69v.46a4 4 0 0 0 .03.5 1.1 1.1 0 0 0 .14.4.24.24 0 0 0 .23.17.6.6 0 0 0 .53-.27 1.8 1.8 0 0 0 .28-.67 6 6 0 0 0 .14-.86c0-.31.06-.59.08-.85a.37.37 0 0 1 .11-.26s.08-.06.08-.07v-.1a1.3 1.3 0 0 1-.05-.31"/><path d="M70.25 7.95a1 1 0 0 1-.25.19 1.2 1.2 0 0 1-.31.13 1 1 0 0 1-.27 0 2.4 2.4 0 0 1-.45 0 1 1 0 0 1-.45-.17 1.1 1.1 0 0 1-.32-.5 3.4 3.4 0 0 1-.19-.82 8 8 0 0 1-.09-1.05V3.24l.06-.7c0-.24 0-.46.07-.68s.05-.32.09-.49.06-.35.1-.51a4 4 0 0 1 .12-.43.66.66 0 0 1 .16-.27.43.43 0 0 1 .26-.13h.29a.7.7 0 0 1 .45.14 1 1 0 0 1 .25.39 2.4 2.4 0 0 1 .12.57V3c0 .43-.08.86-.15 1.29a9 9 0 0 1-.22 1.23 4.4 4.4 0 0 1-.55 1.11 3 3 0 0 0 0 .39 2.6 2.6 0 0 0 .09.42 1.4 1.4 0 0 0 .15.32.3.3 0 0 0 .26.13.36.36 0 0 0 .22-.06 1 1 0 0 0 .15-.15 1 1 0 0 1 .14-.15.21.21 0 0 1 .17-.07.17.17 0 0 1 .16.07.37.37 0 0 1-.06.42m-.8-6.17a3 3 0 0 0 0-.33 1 1 0 0 0-.08-.28c0-.08-.07-.11-.13-.11s-.14.11-.19.33a6 6 0 0 0-.11.88c0 .37 0 .78-.06 1.24s0 .92 0 1.4v.79a7 7 0 0 0 .51-1.83 16 16 0 0 0 .1-1.83zm2.38.85a.6.6 0 0 1-.19.08h-.31a1 1 0 0 1-.5-.14 1.4 1.4 0 0 1-.45-.46l-.07-.1s-.05-.06-.05-.08 0-.08.09-.11l.2-.09a1.2 1.2 0 0 1 .22-.08h.14a1 1 0 0 1 .47.12.88.88 0 0 1 .38.44 1 1 0 0 0 .09.13.3.3 0 0 1 .06.13.14.14 0 0 1-.08.16m1.18 4.1a2.8 2.8 0 0 1-.27.58 1.5 1.5 0 0 1-.44.44 1.13 1.13 0 0 1-.65.18 1.1 1.1 0 0 1-.61-.21 1.08 1.08 0 0 1-.43-.56 2.3 2.3 0 0 1-.09-.67V4.01a.5.5 0 0 0 0-.11.16.16 0 0 1 0-.09l.07-.07h.5a1.3 1.3 0 0 1 .27 0 .7.7 0 0 1 .26.11.27.27 0 0 1 .12.23v.13a1.3 1.3 0 0 0-.1.33 1 1 0 0 1 0 .18v1.87a2 2 0 0 0 .05.36.6.6 0 0 0 .14.26.33.33 0 0 0 .25.11.5.5 0 0 0 .36-.14 2 2 0 0 0 .21-.23 1.5 1.5 0 0 0 .2-.44c0-.19.09-.37.13-.56v-.12a.19.19 0 0 1 .21-.18c.12 0 .18.08.18.25v.24a5 5 0 0 1-.36.59"/><path d="M75.34 5.07a1.7 1.7 0 0 1-.33.4 1.3 1.3 0 0 1 .22.36 3 3 0 0 1 .12.47 4 4 0 0 1 .06.51v.86c0 .2 0 .44-.07.72s-.09.57-.15.88a7 7 0 0 1-.22.85 2.8 2.8 0 0 1-.33.65.53.53 0 0 1-.45.25 1 1 0 0 1-.25-.05l-.28-.13a3 3 0 0 1-.26-.19.7.7 0 0 1-.18-.22 2.2 2.2 0 0 1-.17-.7 12 12 0 0 1-.06-1.36v-1c0-.36 0-.73.08-1.16l-.18-.06-.2-.09a.46.46 0 0 1-.17-.13.3.3 0 0 1 0-.21.4.4 0 0 1 0-.24.5.5 0 0 1 .21-.17l.25-.11.27-.07c0-.18.08-.42.16-.73s.16-.64.24-1 .16-.72.22-1.09a7 7 0 0 0 .09-1 1.6 1.6 0 0 0 0-.39 1.1 1.1 0 0 0-.14-.34 1 1 0 0 1 .28-.11 2.3 2.3 0 0 1 .4 0h.2a.6.6 0 0 1 .21.1.7.7 0 0 1 .18.15.4.4 0 0 1 .07.21 2.2 2.2 0 0 1-.11.65c-.07.23-.14.48-.2.76s-.07.29-.11.44-.09.31-.14.51-.13.43-.2.7-.16.61-.26 1h.26l.28-.06.36-.09.48-.14a2 2 0 0 1-.18.37m-.55 1.64a2 2 0 0 0 0-.36 2.5 2.5 0 0 0-.1-.35c0-.11-.09-.16-.16-.16h-.1l-.18.08-.24.12c0 .31-.09.71-.12 1.19s0 1.11-.07 1.89v.57a1.4 1.4 0 0 0 .07.37c0 .11.08.17.13.17a.33.33 0 0 0 .27-.19 1.6 1.6 0 0 0 .2-.47 4.5 4.5 0 0 0 .15-.61 6 6 0 0 0 .1-.63c0-.19.05-.35.06-.49s0-.21 0-.23V6.9s0-.08-.01-.19m5.22-3.4a.22.22 0 0 0 .05.16.5.5 0 0 0 .19.06h.65a1.2 1.2 0 0 1 .4.06.21.21 0 0 1 .15.22.3.3 0 0 1 0 .11c-.13.53-.22 1-.28 1.4a10 10 0 0 0-.08 1.2v.4a2 2 0 0 0 .06.35.7.7 0 0 0 .13.24.25.25 0 0 0 .2.09.4.4 0 0 0 .36-.2 3 3 0 0 0 .2-.43l.16-.44c0-.14.13-.2.22-.2a.2.2 0 0 1 .1-.02.25.25 0 0 1 0 .17 2 2 0 0 1-.06.37 1.9 1.9 0 0 1-.23.5 1.4 1.4 0 0 1-.4.44.92.92 0 0 1-.59.2.73.73 0 0 1-.52-.2 1.4 1.4 0 0 1-.26-.48 2.8 2.8 0 0 1-.17-.68 6 6 0 0 1 0-.72 8 8 0 0 1 0-.82c0-.28 0-.56.07-.81a.13.13 0 0 0-.1-.13.36.36 0 0 0-.21-.05.24.24 0 0 0-.17.06 3.6 3.6 0 0 1-.22.75 3 3 0 0 1-.27.48 1.4 1.4 0 0 1-.32.35v.94a4 4 0 0 1-.13.48 3 3 0 0 1-.24.57 1.8 1.8 0 0 1-.37.48.85.85 0 0 1-.56.19 1 1 0 0 1-.24 0l-.38-.09a2 2 0 0 1-.28-.09l-.23-.12a2 2 0 0 1-.49-.4 1.8 1.8 0 0 1-.29-.48 2 2 0 0 1-.14-.52 5 5 0 0 1 0-.53 4.4 4.4 0 0 1 .05-.86c.06-.3.14-.58.22-.85a4.2 4.2 0 0 1 .31-.74 2.4 2.4 0 0 1 .32-.5.8.8 0 0 1 .35-.23.9.9 0 0 1 .34-.07.8.8 0 0 1 .39.1 1.7 1.7 0 0 1 .37.24 2.2 2.2 0 0 1 .35.33q.18.18.33.36a.53.53 0 0 1 .12.25l.09.38a2.2 2.2 0 0 1 .07.48 2.1 2.1 0 0 0 .19-.65 7 7 0 0 0 0-.83 1 1 0 0 0 0-.14v-.25a2 2 0 0 0 0-.25 1 1 0 0 1 0-.13.12.12 0 0 1 0-.1.5.5 0 0 1 .13-.06h.62a.1.1 0 0 1 .07 0l-.05.54zm-2.09 3.16a2.2 2.2 0 0 1-.93 0 3 3 0 0 1-.36-.16v.31a2 2 0 0 0 0 .31 1 1 0 0 0 .11.34.64.64 0 0 0 .22.27.54.54 0 0 0 .37.11.64.64 0 0 0 .45-.16 1.5 1.5 0 0 0 .31-.39 2 2 0 0 0 .18-.47 2.4 2.4 0 0 0 .06-.38 1.4 1.4 0 0 1-.41.22m.47-1.4a3.3 3.3 0 0 0-.09-.61 1.8 1.8 0 0 0-.22-.57.44.44 0 0 0-.41-.25.5.5 0 0 0-.33.14 1.2 1.2 0 0 0-.27.38 2.5 2.5 0 0 0-.19.48 1.5 1.5 0 0 0-.07.45 1.2 1.2 0 0 0 0 .3.9.9 0 0 0 .12.31.6.6 0 0 0 .24.24.66.66 0 0 0 .38.11 1.5 1.5 0 0 0 .29 0 1.1 1.1 0 0 0 .26-.09 1 1 0 0 0 .19-.13.17.17 0 0 0 .07-.14v-.26s.04-.12.03-.36"/><path d="M83.58 5.99c-.07.21-.14.42-.19.64a5 5 0 0 0-.14.66q-.06.33-.12.63s-.07.08-.18.09h-.24a1.7 1.7 0 0 1-.35 0 .3.3 0 0 1-.21-.11.7.7 0 0 1-.11-.28c0-.12 0-.29-.06-.5l.16-3.56c0-.1 0-.15.17-.15a.6.6 0 0 1 .17 0 1 1 0 0 1 .22 0 .7.7 0 0 1 .21.09.15.15 0 0 1 .08.12v2.51a.4.4 0 0 0 0-.1l.2-.53c.08-.21.17-.41.26-.61a3 3 0 0 1 .31-.49.46.46 0 0 1 .33-.2.48.48 0 0 1 .33.1.6.6 0 0 1 .17.26 1.1 1.1 0 0 1 .08.33v1.58a2.5 2.5 0 0 0 .06.56c0 .17.12.25.24.25a.31.31 0 0 0 .24-.12 1.4 1.4 0 0 0 .2-.3 2.5 2.5 0 0 0 .11-.38 2 2 0 0 0 .07-.39c0-.15.07-.22.18-.22s.12 0 .14.07a.3.3 0 0 1 0 .16 3 3 0 0 1-.09.54 2.1 2.1 0 0 1-.23.56 1.4 1.4 0 0 1-.39.45 1 1 0 0 1-.59.18.65.65 0 0 1-.69-.39 3.4 3.4 0 0 1-.07-1.13v-.88a2.7 2.7 0 0 0-.27.56"/><path d="M87.19 2.63a.6.6 0 0 1-.19.08h-.31a1 1 0 0 1-.5-.14 1.4 1.4 0 0 1-.45-.46l-.07-.1s-.05-.06-.05-.08 0-.08.09-.11l.2-.09a1.2 1.2 0 0 1 .22-.08h.14a1 1 0 0 1 .47.12.88.88 0 0 1 .38.44.5.5 0 0 0 .09.13.3.3 0 0 1 .06.13.14.14 0 0 1-.08.16m1.18 4.1a2.8 2.8 0 0 1-.27.58 1.5 1.5 0 0 1-.44.44 1.13 1.13 0 0 1-.65.18 1.1 1.1 0 0 1-.61-.21 1.08 1.08 0 0 1-.43-.56 2.3 2.3 0 0 1-.11-.67V3.9a.16.16 0 0 1 0-.09l.06-.07h.51a1.3 1.3 0 0 1 .27 0 .7.7 0 0 1 .26.11.27.27 0 0 1 .12.23.3.3 0 0 1 0 .13 1.3 1.3 0 0 0-.1.33v.59a3 3 0 0 0 0 .35v1.11a2 2 0 0 0 .05.36.6.6 0 0 0 .14.26.33.33 0 0 0 .25.11.5.5 0 0 0 .1-.15 2 2 0 0 0 .21-.23 1.5 1.5 0 0 0 .2-.44c0-.19.09-.37.13-.56v-.12a.19.19 0 0 1 .21-.18c.12 0 .18.08.18.25v.24a5 5 0 0 1-.08.6"/><path d="M92.74 7.14a2 2 0 0 1-.24.43 1.7 1.7 0 0 1-.35.36.77.77 0 0 1-.44.14.86.86 0 0 1-.63-.27 1.33 1.33 0 0 1-.33-.78l-.16.44a3.5 3.5 0 0 1-.24.47 2 2 0 0 1-.33.36.7.7 0 0 1-.44.15h-.38a.66.66 0 0 1-.49-.19 1.35 1.35 0 0 1-.32-.47 3 3 0 0 1-.17-.63 3.7 3.7 0 0 1-.05-.64 12 12 0 0 1 .07-1.37A5 5 0 0 1 88.5 4a2.1 2.1 0 0 1 .47-.79.92.92 0 0 1 .69-.3 1.6 1.6 0 0 1 .37 0l.23.1.24.11a1.5 1.5 0 0 0 .35.1.77.77 0 0 1 .35.34 1.2 1.2 0 0 1 .14.43 4 4 0 0 1 0 .47 2.7 2.7 0 0 0 0 .49l.13.06a.35.35 0 0 1 .13.08.22.22 0 0 1 0 .14v.08a1.9 1.9 0 0 0-.14.55 5 5 0 0 0 0 .57v.37a2 2 0 0 0 .06.37.8.8 0 0 0 .13.29.25.25 0 0 0 .21.11.34.34 0 0 0 .26-.14 1.8 1.8 0 0 0 .19-.33 3 3 0 0 0 .21-.42 2 2 0 0 0 .07-.29c0-.09.05-.14.12-.14a.14.14 0 0 1 .11.06.38.38 0 0 1 .06.24v.09a.4.4 0 0 1 0 .1 1.3 1.3 0 0 1-.14.4m-2.12-2.65a1.2 1.2 0 0 0-.1-.34.7.7 0 0 0-.18-.26.44.44 0 0 0-.33-.11.63.63 0 0 0-.54.3 2.6 2.6 0 0 0-.33.72 5 5 0 0 0-.16.86v1.15c0 .18 0 .35.07.51a1.3 1.3 0 0 0 .14.4.26.26 0 0 0 .23.17.63.63 0 0 0 .54-.27 2.2 2.2 0 0 0 .28-.67 7 7 0 0 0 .14-.86c0-.31 0-.59.07-.85a.42.42 0 0 1 .07-.26c.06 0 .08-.06.08-.07V4.8a2 2 0 0 0 .02-.31M.35 17.16a4.4 4.4 0 0 1 5.78-2.35 4.5 4.5 0 0 1 1.4.95 4.4 4.4 0 0 1 1 1.4 4.3 4.3 0 0 1 .35 1.71A4.4 4.4 0 0 1 7.52 22a4.7 4.7 0 0 1-1.4.94 4.4 4.4 0 0 1-3.44 0 4.5 4.5 0 0 1-1.4-.94A4.43 4.43 0 0 1 0 18.87a4.3 4.3 0 0 1 .35-1.71m.45 3.39a3.6 3.6 0 0 0 .85 1.18 3.8 3.8 0 0 0 1.25.79 4.3 4.3 0 0 0 1.53.28 3.5 3.5 0 0 0 1.53-.34 4.1 4.1 0 0 0 1.24-.9 4.1 4.1 0 0 0 .83-1.31 4.1 4.1 0 0 0 .31-1.54 3.7 3.7 0 0 0-.31-1.5 3.7 3.7 0 0 0-.83-1.19 3.9 3.9 0 0 0-1.24-.79 4.3 4.3 0 0 0-1.53-.28 3.5 3.5 0 0 0-1.53.36 3.9 3.9 0 0 0-1.25.9 4.2 4.2 0 0 0-.85 1.31 4.1 4.1 0 0 0-.28 1.53 3.7 3.7 0 0 0 .28 1.5m4.53-4.39a3.6 3.6 0 0 1 .61.16l.06.15a1 1 0 0 1 0 .26 1.1 1.1 0 0 1-.09.41.5.5 0 0 1-.13.19.25.25 0 0 1-.21.08h-.11a.4.4 0 0 1-.23-.1.34.34 0 0 1-.13-.18 1 1 0 0 1 0-.15.3.3 0 0 0-.09-.11.7.7 0 0 0-.27 0 2 2 0 0 0-.79.16 1.8 1.8 0 0 0-.61.46 2.2 2.2 0 0 0-.4.71 2.9 2.9 0 0 0-.14.91 2.7 2.7 0 0 0 .09.69 2.1 2.1 0 0 0 .3.6 1.6 1.6 0 0 0 .52.44 1.7 1.7 0 0 0 .73.16 1.5 1.5 0 0 0 .64-.12 1.3 1.3 0 0 0 .4-.31 1.2 1.2 0 0 0 .21-.44 2.2 2.2 0 0 0 .08-.5.7.7 0 0 1 .2-.32.7.7 0 0 1 .27-.06.38.38 0 0 1 .28.06.5.5 0 0 1 .12.36 1.75 1.75 0 0 1-.18.78 2.3 2.3 0 0 1-.49.63 2.6 2.6 0 0 1-.7.43 2.3 2.3 0 0 1-.81.16 2.9 2.9 0 0 1-1-.19 2.5 2.5 0 0 1-.83-.53 2.5 2.5 0 0 1-.54-.81 2.6 2.6 0 0 1-.2-1.05 3.6 3.6 0 0 1 .21-1.27 3 3 0 0 1 .6-.95 2.7 2.7 0 0 1 .92-.6 3.2 3.2 0 0 1 1.17-.21 3.6 3.6 0 0 1 .54.1m15.35 6.37a1.4 1.4 0 0 1-.6.12.78.78 0 0 1-.56-.24 1.86 1.86 0 0 1-.37-.8 8.3 8.3 0 0 1-.2-1.42c0-.59-.06-1.3-.06-2.14a.06.06 0 0 0 0-.06 1.5 1.5 0 0 0-.09.25c-.05.17-.1.37-.16.62s-.13.53-.2.84-.13.6-.19.9-.1.56-.14.82a4 4 0 0 0-.06.6.2.2 0 0 0 0 .14.1.1 0 0 1 0 .18.5.5 0 0 1-.15.08l-.17.06h-.11a1.4 1.4 0 0 1-.25 0 1.2 1.2 0 0 1-.3-.11 2 2 0 0 1-.29-.2.8.8 0 0 1-.21-.3 2.2 2.2 0 0 1-.07-.42 6 6 0 0 1-.05-.64v-2.13c0-.2 0-.3-.07-.3s0 0-.08.11-.06.17-.1.26-.07.19-.09.28-.05.16-.06.2a14 14 0 0 0-.34 1.71 13 13 0 0 0-.19 1.37.6.6 0 0 0 0 .16.1.1 0 0 0 0 .07.1.1 0 0 1 0 .07.9.9 0 0 1-.31.09h-.56l-.13-.08-.25-.12a.2.2 0 0 1-.11-.18v-5.09a5 5 0 0 0-.08-.53 2.3 2.3 0 0 0-.14-.49 1.2 1.2 0 0 0-.23-.37.48.48 0 0 0-.34-.14.93.93 0 0 0-.7.31 2.5 2.5 0 0 0-.49.74 4.7 4.7 0 0 0-.29.92 4.5 4.5 0 0 0-.09.82v.34a2.4 2.4 0 0 0 .09.45 1.2 1.2 0 0 0 .2.4.45.45 0 0 0 .37.17h.57a.5.5 0 0 1 .15.08.18.18 0 0 1 .07.15.3.3 0 0 1-.07.18.8.8 0 0 1-.18.1h-.31a1.16 1.16 0 0 1-.77-.24 1.6 1.6 0 0 1-.45-.58 2.8 2.8 0 0 1-.21-.7 5 5 0 0 1-.05-.63 4.6 4.6 0 0 1 .13-1 3.6 3.6 0 0 1 .42-1.08 2.9 2.9 0 0 1 .76-.82 1.87 1.87 0 0 1 1.15-.35.75.75 0 0 1 .38.1 1.5 1.5 0 0 1 .31.26 1.8 1.8 0 0 1 .25.36 1.7 1.7 0 0 1 .15.36 4.6 4.6 0 0 1 .2.92c0 .36.07.74.09 1.13s0 .8 0 1.2v1.1c0-.2.08-.39.12-.56s.09-.36.14-.54.1-.38.15-.59.11-.44.18-.71.13-.59.22-.92.17-.62.26-.89c0-.07.07-.11.18-.13a1 1 0 0 1 .2 0 .6.6 0 0 1 .24.06 3 3 0 0 1 .29.16 1.3 1.3 0 0 1 .24.23.36.36 0 0 1 .1.24v4s.11-.15.17-.43.15-.64.24-1.06.18-.88.29-1.37.21-.95.33-1.38a7.4 7.4 0 0 1 .38-1.06q.21-.42.42-.42a.43.43 0 0 1 .29.15 3 3 0 0 1 .29.35 2.2 2.2 0 0 1 .21.4.8.8 0 0 1 .09.27 1.5 1.5 0 0 1-.06.25 6 6 0 0 0-.13.65q-.06.45-.12 1.23c0 .51-.06 1.17-.06 2a4.5 4.5 0 0 0 0 .58 4.5 4.5 0 0 0 .13.64 1.6 1.6 0 0 0 .22.52.4.4 0 0 0 .33.22.3.3 0 0 0 .16-.05.43.43 0 0 0 .15-.17.13.13 0 0 1 0 .08.5.5 0 0 1-.02.39m2.33-.33a2 2 0 0 1-.32.17l-.35.13a1 1 0 0 1-.24 0 .93.93 0 0 1-.47-.11 4 4 0 0 0-.44-.21.12.12 0 0 0 0-.1l-.08-.07v-.06a.38.38 0 0 1 .13-.26 1.6 1.6 0 0 1 .3-.21 2.5 2.5 0 0 1 .36-.12 1.3 1.3 0 0 1 .31 0 .7.7 0 0 1 .25.06 1.5 1.5 0 0 1 .3.16 1.4 1.4 0 0 1 .25.22.42.42 0 0 1 .1.24c.04.05-.01.1-.1.16m5.01-.83a3.6 3.6 0 0 1-.46.66 2 2 0 0 1-.9.62 2.8 2.8 0 0 1-.89.16 1.93 1.93 0 0 1-1.75-.91 5 5 0 0 1-.57-2.59 8 8 0 0 1 .16-1.68 6 6 0 0 1 .44-1.36 2.9 2.9 0 0 1 .65-.92 1.2 1.2 0 0 1 .81-.33h.25a1 1 0 0 1 .37.06 2 2 0 0 1 .29.15l.28.19a2 2 0 0 0 .36.2.82.82 0 0 1 .48.57 3.1 3.1 0 0 1 .12.88v.35a.75.75 0 0 1-.07.33.5.5 0 0 1-.19.25.63.63 0 0 1-.38.14.49.49 0 0 1-.48-.25 1 1 0 0 1-.13-.51V17a3 3 0 0 0 0-.45 1.5 1.5 0 0 0-.09-.53.36.36 0 0 0-.37-.22.93.93 0 0 0-.73.31 2.6 2.6 0 0 0-.44.81 5.8 5.8 0 0 0-.23 1.1 11 11 0 0 0-.03 1.12v1.06a3.8 3.8 0 0 0 .15.87 1.7 1.7 0 0 0 .35.66 1.6 1.6 0 0 0 .63.47 1.1 1.1 0 0 0 .37.07 1.26 1.26 0 0 0 .57-.14 1.7 1.7 0 0 0 .48-.36 2 2 0 0 0 .32-.53 1.5 1.5 0 0 0 .12-.6 1.35 1.35 0 0 1 .11-.55.4.4 0 0 1 .38-.24.25.25 0 0 1 .25.12.6.6 0 0 1 .06.27 1.5 1.5 0 0 1-.06.46 2.6 2.6 0 0 1-.23.67m2.61.83a2 2 0 0 1-.32.17l-.35.13a1 1 0 0 1-.24 0 .93.93 0 0 1-.47-.11 4 4 0 0 0-.44-.21.12.12 0 0 0 0-.1l-.07-.07v-.06a.37.37 0 0 1 .12-.26 1.3 1.3 0 0 1 .3-.21 2.5 2.5 0 0 1 .36-.12 1.4 1.4 0 0 1 .31 0 .7.7 0 0 1 .26.06 1.4 1.4 0 0 1 .29.16 1.3 1.3 0 0 1 .24.22.37.37 0 0 1 .11.24c.04.05-.01.1-.1.16m8.94-4.64a3.7 3.7 0 0 1-.5.78 4.8 4.8 0 0 1-.68.67 2.7 2.7 0 0 1-.77.45 3.6 3.6 0 0 1 .6.24 2.7 2.7 0 0 1 .56.36.9.9 0 0 1 .16.22 4 4 0 0 1 .17.35c0 .13.09.25.13.37a1.2 1.2 0 0 1 0 .29.77.77 0 0 1-.28.59 2.5 2.5 0 0 1-.64.42 3.4 3.4 0 0 1-.7.24 2.3 2.3 0 0 1-.47.09h-.78a1.3 1.3 0 0 1-.37-.1l-.48-.22-.47-.27a1.4 1.4 0 0 1-.25-.2.7.7 0 0 0 .06-.31v-5.22a1.1 1.1 0 0 1 .05-.39v-.11a2.1 2.1 0 0 0-.58.14 6 6 0 0 0-.79.36 4 4 0 0 0-.68.48.7.7 0 0 0-.3.48 1.5 1.5 0 0 0 .06.46 2 2 0 0 1 .06.2.65.65 0 0 1-.08.35.28.28 0 0 1-.26.13.26.26 0 0 1-.23-.1.7.7 0 0 1-.13-.23 2 2 0 0 1-.05-.24 1 1 0 0 1 0-.16 1.46 1.46 0 0 1 .27-.85 3 3 0 0 1 .72-.68 5 5 0 0 1 1-.5 9 9 0 0 1 1.27-.34 10 10 0 0 1 1.17-.2 8 8 0 0 1 1-.07h.16a2.9 2.9 0 0 1 1 .27 2 2 0 0 1 .78.59l.24.29a.7.7 0 0 1 .13.19 1 1 0 0 1 0 .18 2 2 0 0 1 0 .24 1.8 1.8 0 0 1-.1.76m-1.26-1.69a4.7 4.7 0 0 0-1.51-.19h-.71a2 2 0 0 0-.33 0l.06.07a.24.24 0 0 1 .08.11.6.6 0 0 1 .06.23 2.3 2.3 0 0 1 0 .42v2.36c0 .06 0 .1.05.12a1.3 1.3 0 0 0 .39 0 1.6 1.6 0 0 0 .71-.21 3.4 3.4 0 0 0 1.41-1.28 1.75 1.75 0 0 0 .27-.92.7.7 0 0 0-.48-.71m-.2 4.65a2.6 2.6 0 0 0-.42-.39 3.5 3.5 0 0 0-.47-.29.8.8 0 0 0-.33-.11 5 5 0 0 0-.54 0l-.29.06a.3.3 0 0 0 0 .13v1.13a1.3 1.3 0 0 0 0 .27 1 1 0 0 0 .1.29.6.6 0 0 0 .19.23.52.52 0 0 0 .33.1h.24a1.6 1.6 0 0 0 .37-.06 2 2 0 0 0 .47-.2 1.9 1.9 0 0 0 .36-.37.68.68 0 0 0 .17-.45.58.58 0 0 0-.18-.34m9.15.79a3.3 3.3 0 0 1-.19.64 1.9 1.9 0 0 1-.36.58.73.73 0 0 1-.57.26.78.78 0 0 1-.62-.27 1.9 1.9 0 0 1-.34-.65 4 4 0 0 1-.16-.79v-1.95c0-.21 0-.1-.1-.12a.6.6 0 0 0-.18 0 .34.34 0 0 0-.18 0 .2.2 0 0 0-.05.08c0 .28-.07.6-.11 1a7 7 0 0 1-.23 1.05 2.5 2.5 0 0 1-.41.84.8.8 0 0 1-.67.35 1.4 1.4 0 0 1-.3 0 1.4 1.4 0 0 1-.24-.13l-.03-.19a1.7 1.7 0 0 1-.33-.63s0 .13-.08.26a3 3 0 0 1-.14.44 1.5 1.5 0 0 1-.24.4.52.52 0 0 1-.38.17 1 1 0 0 1-.9-.38 2.4 2.4 0 0 1-.29-1.12v-2.76a1 1 0 0 0 0-.1h.26l.26.05a.9.9 0 0 1 .24.11.2.2 0 0 1 .11.17v2.76a2.3 2.3 0 0 0 .09.41c0 .12.11.19.18.19s.18-.09.24-.27a3 3 0 0 0 .17-.67q.06-.39.09-.84v-.83a1.3 1.3 0 0 0 0-.19.46.46 0 0 0-.05-.21.6.6 0 0 1 .18-.05 1 1 0 0 1 .24 0h.35a.9.9 0 0 1 .24 0 .34.34 0 0 1 .16.12.43.43 0 0 1 .06.24v1.71a2.4 2.4 0 0 0 .06.37 1.3 1.3 0 0 0 .11.33.21.21 0 0 0 .19.13c.15 0 .26-.09.35-.28a2.8 2.8 0 0 0 .21-.69 8 8 0 0 0 .09-.88v-1.28a2 2 0 0 0 0-.29v-.51a.31.31 0 0 1 .18-.25.9.9 0 0 1 .38-.1c.18 0 .27.1.25.29v.36q0 .12.24.15h.51a4 4 0 0 1 .52.09.28.28 0 0 1 .23.27 1 1 0 0 1 0 .12v.17l-.06.17v.12a3.5 3.5 0 0 0-.16.82 7 7 0 0 0 0 .91v.26a3 3 0 0 0 .05.4 2 2 0 0 0 .1.36q.08.15.18.15a.4.4 0 0 0 .11-.17 3 3 0 0 0 .25-.51 4.5 4.5 0 0 0 .17-.6 4 4 0 0 0 .09-.44c0-.09 0-.14.08-.16h.1c.11 0 .17.07.17.21v.33c-.05.05-.08.2-.12.47"/><path d="M51.16 20.1c0 .2 0 .43-.09.71s-.08.32-.13.52a2.8 2.8 0 0 1-.21.57 1.6 1.6 0 0 1-.33.45.68.68 0 0 1-.48.18.9.9 0 0 1-.48-.11 1 1 0 0 1-.3-.27 2 2 0 0 1-.19-.36 3 3 0 0 0-.16-.36 1.2 1.2 0 0 0-.2-.28.48.48 0 0 0-.33-.1h-.15v.72a4 4 0 0 0 0 .43 3 3 0 0 0 .08.46h-.41a1 1 0 0 1-.48-.07c-.07-.05-.11-.18-.11-.41v-7.19a1 1 0 0 0 0-.27.6.6 0 0 1 0-.15c0-.06 0-.1.11-.14a1 1 0 0 1 .44-.07 3 3 0 0 1 .35 0 2 2 0 0 1 .25.08.6.6 0 0 1 .19.12 7 7 0 0 0-.12.81q-.06.5-.09 1.08c0 .39-.05.78-.06 1.16s0 .74 0 1.05c0-.07.08-.18.14-.34a4 4 0 0 1 .25-.48 2.3 2.3 0 0 1 .34-.41.6.6 0 0 1 .43-.18.54.54 0 0 1 .42.16.94.94 0 0 1 .22.39 2.2 2.2 0 0 1 .08.45v.39a1.6 1.6 0 0 1-.1.54 2.4 2.4 0 0 1-.27.59 2.6 2.6 0 0 1-.41.53 1.6 1.6 0 0 1-.52.36 1.2 1.2 0 0 1 .37.19 1.15 1.15 0 0 1 .31.37.7.7 0 0 1 .09.22 1.5 1.5 0 0 0 .09.22.5.5 0 0 0 .12.18.24.24 0 0 0 .2.07.37.37 0 0 0 .31-.17 2 2 0 0 0 .19-.43 7 7 0 0 0 .16-.71c0-.28.08-.56.12-.86a.4.4 0 0 1 .09-.22.2.2 0 0 1 .12-.05c.13 0 .2.09.2.27a3 3 0 0 1-.05.36m-1.74-1.18v-.25a2 2 0 0 0 0-.43c0-.12-.08-.18-.17-.18a.55.55 0 0 0-.4.21 2.6 2.6 0 0 0-.34.55 3.8 3.8 0 0 0-.24.74 4 4 0 0 0-.09.81.1.1 0 0 0 0 .08h.14a.77.77 0 0 0 .4-.11 1.1 1.1 0 0 0 .33-.31 1.6 1.6 0 0 0 .24-.44 1.5 1.5 0 0 0 .12-.49 2 2 0 0 0 .01-.18"/><path d="M55.35 21.22a2.7 2.7 0 0 1-.27.6 1.7 1.7 0 0 1-.44.51 1 1 0 0 1-.66.23.84.84 0 0 1-.59-.22 1.25 1.25 0 0 1-.33-.59 3.8 3.8 0 0 1-.15-.91v-1.42a2 2 0 0 1 0-.28 4 4 0 0 0-.29.66 7 7 0 0 0-.26.86c-.08.31-.14.61-.19.93a7 7 0 0 0-.08.89l-.26.06a1 1 0 0 1-.32 0h-.17l-.19-.05a.5.5 0 0 1-.16-.1.27.27 0 0 1-.07-.18.4.4 0 0 1 0-.1 1.1 1.1 0 0 0 0-.34v-6.9a.5.5 0 0 0 0-.22.25.25 0 0 1 0-.15l.09-.07a.6.6 0 0 1 .19 0 2 2 0 0 1 .22 0h.19a1.6 1.6 0 0 1 .63.13c0 .22-.07.5-.11.86s-.07.72-.1 1.1-.06.74-.07 1.09 0 .62 0 .81v2.38a1.3 1.3 0 0 1 .05-.23c0-.15.08-.33.14-.54s.12-.45.2-.7a6 6 0 0 1 .24-.69 4 4 0 0 1 .25-.53c.09-.13.18-.21.26-.21a1.6 1.6 0 0 1 .36.06.4.4 0 0 1 .3.19.5.5 0 0 0 .1.2 1 1 0 0 0 .09.09.6.6 0 0 1 .08.08.15.15 0 0 1 0 .1 2 2 0 0 1-.05.24c0 .14 0 .31-.08.51s-.06.43-.08.68 0 .48 0 .72a3.3 3.3 0 0 0 .09.83c.05.23.16.35.32.35a.57.57 0 0 0 .4-.15 1.1 1.1 0 0 0 .26-.36 3 3 0 0 0 .15-.46c0-.16.07-.31.09-.44s.1-.25.18-.25a.2.2 0 0 1 .19.1.6.6 0 0 1 0 .25v.16a2.5 2.5 0 0 1-.15.42"/><path d="M62.52 20.84a5 5 0 0 1-.23.85 2.8 2.8 0 0 1-.39.73.69.69 0 0 1-.55.32.86.86 0 0 1-.65-.26 1.7 1.7 0 0 1-.38-.61 3.4 3.4 0 0 1-.17-.79 8 8 0 0 1 0-.78 6 6 0 0 1 0-.66 4 4 0 0 0 0-.43c0-.14 0-.23-.07-.27a.6.6 0 0 0-.33-.07c-.08 0-.11.09-.11.27v.84a5 5 0 0 1 0 .51c0 .16 0 .35-.08.6a4.4 4.4 0 0 1-.19.71 2 2 0 0 1-.32.58.57.57 0 0 1-.49.25 1 1 0 0 1-.71-.31 1.32 1.32 0 0 1-.36-.81 2 2 0 0 1-.12.44 1.9 1.9 0 0 1-.24.44 1.3 1.3 0 0 1-.32.33.64.64 0 0 1-.39.14.34.34 0 0 1-.2-.06.4.4 0 0 0-.22-.06.78.78 0 0 1-.57-.22 1.5 1.5 0 0 1-.33-.54 2.4 2.4 0 0 1-.16-.67v-1.24a6 6 0 0 1 .07-.73c0-.25.08-.49.13-.73a2.6 2.6 0 0 1 .25-.63 1.3 1.3 0 0 1 .38-.45.8.8 0 0 1 .52-.18 2 2 0 0 1 .34.08 3 3 0 0 1 .31.13l.17.07.39.18a1 1 0 0 1 .29.25 1.1 1.1 0 0 1 .18.42 3.6 3.6 0 0 1 .06.73v.23l.13.05.15.06a.27.27 0 0 1 .12.09.25.25 0 0 1 0 .16.3.3 0 0 1 0 .08v.07a.7.7 0 0 0-.06.21 2 2 0 0 0 0 .26 2 2 0 0 0 0 .26v.49a3 3 0 0 0 0 .4 1.6 1.6 0 0 0 .09.36c0 .11.1.16.17.16s.32-.24.41-.71a10 10 0 0 0 .14-2v-.82c0-.28 0-.59-.05-.93a.4.4 0 0 1 0-.07.2.2 0 0 1 .09-.09.7.7 0 0 1 .21-.08 1.8 1.8 0 0 1 .37 0 .18.18 0 0 1 .2.21v.46a.6.6 0 0 0 0 .24q0 .12.21.12l.75-.06a.55.55 0 0 1 .33.06.44.44 0 0 1 0 .23 2 2 0 0 1 0 .42c0 .15-.05.29-.07.43s-.08.59-.11.88a9 9 0 0 0-.05.88v.25a2 2 0 0 0 0 .35 1.5 1.5 0 0 0 .08.32c0 .09.09.14.16.14s.24-.09.34-.27a3 3 0 0 0 .24-.65 6 6 0 0 0 .17-.82c0-.29.08-.55.1-.77a.24.24 0 0 1 .12 0c.15 0 .23 0 .25.1a.7.7 0 0 1 0 .28 5 5 0 0 1 0 .65m-5.26-2a1 1 0 0 0-.09-.33.7.7 0 0 0-.18-.26.36.36 0 0 0-.28-.11.67.67 0 0 0-.51.22 1.6 1.6 0 0 0-.36.58 3.2 3.2 0 0 0-.21.81 5.3 5.3 0 0 0-.07.9 4 4 0 0 0 0 .63 2.7 2.7 0 0 0 .11.54 1.2 1.2 0 0 0 .19.37.31.31 0 0 0 .25.14.48.48 0 0 0 .38-.18 1.2 1.2 0 0 0 .24-.44 3 3 0 0 0 .13-.59c0-.22.06-.43.08-.64s0-.39.06-.56a1.4 1.4 0 0 1 .09-.39s0-.06.05-.07v-.15a.6.6 0 0 0 0-.16 2 2 0 0 0 .13-.33z"/><path d="M62.21 19.03v-1.18c0-.06-.06-.1-.19-.13l-.43-.07a1.8 1.8 0 0 1-.43-.11.26.26 0 0 1-.19-.26c0-.1.1-.16.31-.18s.52 0 .92 0c0 0 .06-.05.07-.15a3 3 0 0 0 0-.36v-1.32c0-.1 0-.14.08-.14h.22l.32.07a2 2 0 0 1 .3.1c.08 0 .12.08.12.13l-.13 1.56c0 .05 0 .08.13.1a1.3 1.3 0 0 0 .32 0h.42a3 3 0 0 1 .42 0 .9.9 0 0 1 .32.12.25.25 0 0 1 .13.23 1 1 0 0 1 0 .08s0 .05-.06.05h-1.01l-.44.05c-.13 0-.21.05-.22.08a1.3 1.3 0 0 0 0 .28v2.83a3 3 0 0 0 0 .44 1.4 1.4 0 0 0 .07.39.8.8 0 0 0 .12.28.23.23 0 0 0 .19.11.4.4 0 0 0 .29-.13 1.3 1.3 0 0 0 .24-.36 4 4 0 0 0 .19-.51c0-.2.1-.39.14-.59a.8.8 0 0 1 .09-.26.16.16 0 0 1 .14-.08.2.2 0 0 1 .15.06.3.3 0 0 1 .07.24.5.5 0 0 1 0 .16c0 .14-.07.34-.13.59a4 4 0 0 1-.28.74 3 3 0 0 1-.42.65.8.8 0 0 1-.59.27.92.92 0 0 1-.57-.18 1.5 1.5 0 0 1-.4-.52 3.1 3.1 0 0 1-.25-.78 6 6 0 0 1-.08-1v-.02c.02-.44.03-.86.05-1.28m4.18 3.41a1.1 1.1 0 0 1-.33.31 1.7 1.7 0 0 1-.41.2 1.3 1.3 0 0 1-.36.06.2.2 0 0 1-.1 0 .11.11 0 0 1-.08-.07h.17a1 1 0 0 0 .2-.06.44.44 0 0 0 .15-.12.28.28 0 0 0 .06-.18s0-.08-.15-.11l-.33-.16a2 2 0 0 1-.32-.13.23.23 0 0 1-.15-.22.08.08 0 0 1 0-.07v-.1a.5.5 0 0 1 .14-.27 1 1 0 0 1 .22-.18 1.3 1.3 0 0 1 .32-.03h.23a1 1 0 0 1 .29.05 1.2 1.2 0 0 1 .29.16.9.9 0 0 1 .21.25.63.63 0 0 1 .09.33.7.7 0 0 1-.14.34m7.63-4.93a6 6 0 0 1-.68.93 13 13 0 0 1-.88.92l-.88.84-.68.68c-.18.19-.27.33-.27.43s.06.08.17.1h2.24a2.6 2.6 0 0 1 .42 0 .46.46 0 0 1 .26.1.4.4 0 0 1 .14.25 2 2 0 0 1 0 .48c0 .09 0 .13-.06.13h-3.88a1.3 1.3 0 0 1-.4-.06 1 1 0 0 1-.32-.23.67.67 0 0 1-.13-.41.8.8 0 0 1 0-.19 1.7 1.7 0 0 1 .1-.29c0-.1.08-.2.12-.28a.46.46 0 0 1 .11-.18c.12-.13.26-.25.39-.37l.4-.34.52-.46c.2-.18.42-.38.64-.6s.45-.44.67-.68a7 7 0 0 0 .6-.74 4 4 0 0 0 .43-.75 1.7 1.7 0 0 0 .16-.71.72.72 0 0 0-.24-.59 1 1 0 0 0-.61-.2 1.8 1.8 0 0 0-.85.19 1.4 1.4 0 0 0-.47.44 2 2 0 0 0-.25.55c-.06.2-.12.38-.19.56a1.3 1.3 0 0 1-.27.42.7.7 0 0 1-.51.17.46.46 0 0 1-.38-.14.67.67 0 0 1-.1-.39 1.8 1.8 0 0 1 .25-.91 2.8 2.8 0 0 1 .66-.79 3.4 3.4 0 0 1 .92-.56 2.7 2.7 0 0 1 1-.21 1.24 1.24 0 0 1 .57.18 3.6 3.6 0 0 1 .78.51 2.8 2.8 0 0 1 .55.65 1.4 1.4 0 0 1 .23.73 1.7 1.7 0 0 1-.28.82m6.28 2.87a4.4 4.4 0 0 1-.25.8 2.5 2.5 0 0 1-.41.69 1.9 1.9 0 0 1-.89.58.9.9 0 0 1-.31.07h-.66a2 2 0 0 1-.39-.05l-.4-.09-.58-.18a1.7 1.7 0 0 1-.51-.31 2 2 0 0 1-.46-.61 4 4 0 0 1-.28-.75 4.3 4.3 0 0 1-.14-.8 7 7 0 0 1 0-.76v-.72a7 7 0 0 1 .13-.84 6 6 0 0 1 .23-.85 3.3 3.3 0 0 1 .37-.75 1.74 1.74 0 0 1 .55-.53 1.3 1.3 0 0 1 .74-.21h.19l.25.05.26.06.22.06.45.08.38.11a1.2 1.2 0 0 1 .34.17 2 2 0 0 1 .35.31 2.2 2.2 0 0 1 .37.59 4.5 4.5 0 0 1 .29.78c.08.28.14.55.19.82a5 5 0 0 1 .06.7v.79a3.6 3.6 0 0 1-.09.79m-.85-1.93a6 6 0 0 0-.11-.82 6 6 0 0 0-.22-.78 1.5 1.5 0 0 0-.36-.57 1.16 1.16 0 0 0-.5-.27 2.7 2.7 0 0 0-.56-.06 1.3 1.3 0 0 0-.89.3 1.9 1.9 0 0 0-.49.74 3.5 3.5 0 0 0-.22.94 8 8 0 0 0-.06.92 8 8 0 0 0 .06.87 4.5 4.5 0 0 0 .23 1 2.5 2.5 0 0 0 .47.8 1 1 0 0 0 .78.32h.5a.83.83 0 0 0 .5-.16 1.4 1.4 0 0 0 .4-.4 3 3 0 0 0 .28-.52 2.5 2.5 0 0 0 .14-.51c0-.18.05-.36.07-.54s0-.36 0-.54.05-.44-.02-.72m6.23-.94a5.5 5.5 0 0 1-.68.93 13 13 0 0 1-.88.92l-.88.84c-.27.26-.5.49-.68.68s-.27.33-.27.43.06.08.17.1h2.24a2.5 2.5 0 0 1 .41 0 .4.4 0 0 1 .26.1.44.44 0 0 1 .15.25 2 2 0 0 1 0 .55c0 .09 0 .13-.06.13a.24.24 0 0 1-.1 0H81.6a1.5 1.5 0 0 1-.41-.11 1.1 1.1 0 0 1-.32-.23.66.66 0 0 1-.12-.41.6.6 0 0 1 0-.19c0-.1.06-.19.1-.29s.08-.2.12-.28a.6.6 0 0 1 .11-.18l.39-.37.4-.34.52-.46c.21-.18.42-.38.64-.6s.45-.44.67-.68a6 6 0 0 0 .6-.74 4 4 0 0 0 .43-.75 1.7 1.7 0 0 0 .16-.71.72.72 0 0 0-.24-.59.93.93 0 0 0-.61-.2 1.8 1.8 0 0 0-.85.19 1.4 1.4 0 0 0-.47.44 2 2 0 0 0-.25.55c-.06.2-.12.38-.19.56a1 1 0 0 1-.27.42.7.7 0 0 1-.51.17.44.44 0 0 1-.37-.14.6.6 0 0 1-.11-.39 1.8 1.8 0 0 1 .25-.91 2.9 2.9 0 0 1 .66-.79 3.4 3.4 0 0 1 .92-.56 2.8 2.8 0 0 1 1-.21 1.3 1.3 0 0 1 .57.18 3.5 3.5 0 0 1 .66.47 2.8 2.8 0 0 1 .55.65 1.33 1.33 0 0 1 .23.73 1.7 1.7 0 0 1-.18.84m6.28 2.87a4.4 4.4 0 0 1-.24.8 2.8 2.8 0 0 1-.42.69 1.5 1.5 0 0 1-.58.46l-.3.12a.9.9 0 0 1-.32.07h-.66a2 2 0 0 1-.39-.05l-.4-.09-.58-.18a1.7 1.7 0 0 1-.51-.31 2.2 2.2 0 0 1-.45-.61 4 4 0 0 1-.29-.75 7 7 0 0 1-.14-.8 7 7 0 0 1 0-.76v-.72c0-.27.07-.55.13-.84a8 8 0 0 1 .23-.85 3 3 0 0 1 .38-.75 1.8 1.8 0 0 1 .54-.53 1.3 1.3 0 0 1 .74-.21h.19l.25.05.27.06.21.06.45.08.38.11a1.3 1.3 0 0 1 .35.17 2.4 2.4 0 0 1 .35.31 2.5 2.5 0 0 1 .37.59 5.5 5.5 0 0 1 .29.78 6 6 0 0 1 .18.82 4 4 0 0 1 .07.7v.79a3.6 3.6 0 0 1-.1.79m-.84-1.93a6 6 0 0 0-.12-.82 5 5 0 0 0-.22-.78 1.6 1.6 0 0 0-.35-.57 1.2 1.2 0 0 0-.51-.27 2.7 2.7 0 0 0-.56-.06 1.25 1.25 0 0 0-.88.3 1.8 1.8 0 0 0-.5.74 4 4 0 0 0-.22.94 7.3 7.3 0 0 0 0 1.79 4.5 4.5 0 0 0 .22 1 2.6 2.6 0 0 0 .47.8 1 1 0 0 0 .78.32h.5a.84.84 0 0 0 .51-.16 1.5 1.5 0 0 0 .39-.4 2 2 0 0 0 .28-.52 2.5 2.5 0 0 0 .14-.51 3.3 3.3 0 0 0 .07-.54v-.54c0-.18.02-.44 0-.72"/></svg>