<svg xmlns="http://www.w3.org/2000/svg" viewBox="0 0 297.72 150.94"><path d="M69.25 59.2v.45c0 .77-.72 1.37-2.18 1.79a34.4 34.4 0 0 1-4.92 1c-1.84.25-3.67.44-5.51.57a31 31 0 0 0-3.9.45c-.6 5-1.22 9.22-1.86 12.54a16.6 16.6 0 0 1-3.52 8.02A14 14 0 0 1 40 88.13a58 58 0 0 1-13.5 1.22 21.8 21.8 0 0 1-6.72-1.15 21.7 21.7 0 0 1-6.47-3.4 19.5 19.5 0 0 1-4.93-5.57 14.7 14.7 0 0 1-2-7.68 4.85 4.85 0 0 1 .83-3.07 2.62 2.62 0 0 1 2.11-1 5.15 5.15 0 0 1 4.93 2.69 16 16 0 0 1 1.86 5.37 12.6 12.6 0 0 0 1.09 3.59 10.6 10.6 0 0 0 2.3 3.2 10.8 10.8 0 0 0 3.65 2.24 14.8 14.8 0 0 0 5.25.83 7.33 7.33 0 0 0 5.6-2.38 18.1 18.1 0 0 0 3.59-5.63 29 29 0 0 0 1.86-6.66 38.4 38.4 0 0 0 .51-5.44v-1.27a7 7 0 0 0-.13-1.28c0-.17-.64-.38-1.92-.64s-2.69-.49-4.22-.7-3-.39-4.29-.51-2.07-.2-2.24-.2a5.27 5.27 0 0 0-2.76.64 1.9 1.9 0 0 1-1.34.52c-.6 0-.9-.39-.9-1.16A4.85 4.85 0 0 1 25 55.87a15.9 15.9 0 0 1 6.73-1.34h9.34c.26 0 .4-.66.45-2s.1-3 .19-5.12.21-4.42.38-7a77 77 0 0 1 .9-7.68 46 46 0 0 1 1.79-7.23 14.7 14.7 0 0 1 3.07-5.44q-2.68-.51-6.91-1.16c-2.81-.42-5.87-.81-9.15-1.15s-6.64-.64-10-.89-6.61-.39-9.6-.39c-.51 0-1.22 0-2.11.13a7.8 7.8 0 0 0-2.56.7 6.06 6.06 0 0 0-2.14 1.72 4.8 4.8 0 0 0-.9 3.13 6.07 6.07 0 0 0 2.18 4.47q2.17 2.05 4.8 4.23a36.3 36.3 0 0 1 4.8 4.8 9.78 9.78 0 0 1 2.17 6.46 6.25 6.25 0 0 1-.7 2.82 2.55 2.55 0 0 1-2.5 1.41c-1.36 0-2.92-.86-4.67-2.56a35.3 35.3 0 0 1-5-6.27 45 45 0 0 1-4-7.81A20.4 20.4 0 0 1 0 22.4a11.9 11.9 0 0 1 1.54-6.38q1.53-2.49 6.84-4t15.62-2q10.31-.51 27.84-.51a34 34 0 0 0 5.83-.38 17 17 0 0 1 2.62-.39q.65 0 2 1.92a51 51 0 0 1 3.52 6.4q0 .65-1.53 1a9.15 9.15 0 0 0-3.33 1.6 12.9 12.9 0 0 0-4.48 5.89 40.6 40.6 0 0 0-2.5 8.9 79 79 0 0 0-1 10.17q-.2 5.25-.19 9.86c0 .17.77.28 2.3.32s3.27.17 5.19.38a34.6 34.6 0 0 1 5.56 1.09q2.7.77 3.33 2.31a1.2 1.2 0 0 1 .09.62"/><path d="M103.17 73.35a24 24 0 0 1-3.59 7.36 20.9 20.9 0 0 1-6.2 5.69 17 17 0 0 1-9 2.31 18.26 18.26 0 0 1-8.45-1.79 16.2 16.2 0 0 1-5.72-4.9 19.5 19.5 0 0 1-3.21-7.2 39 39 0 0 1-1-8.77 53.3 53.3 0 0 1 1-9.86 42.6 42.6 0 0 1 3.2-10 25.2 25.2 0 0 1 5.51-7.8 11.3 11.3 0 0 1 8.06-3.14 10.1 10.1 0 0 1 4.35 1 12.5 12.5 0 0 1 3.59 2.5 11.7 11.7 0 0 1 2.43 3.58 12.1 12.1 0 0 1 1 4.23l.13 1.79a25 25 0 0 1-1 6.72 27 27 0 0 1-3 6.78 18.8 18.8 0 0 1-4.61 5.17 10.38 10.38 0 0 1-6.4 2.11 12 12 0 0 1-1.6-.13 12.5 12.5 0 0 1-1.86-.38v3.7a8.4 8.4 0 0 0 .58 2.56 12.9 12.9 0 0 0 1.72 3.27 11.3 11.3 0 0 0 3 2.81 8.13 8.13 0 0 0 4.55 1.22 11.4 11.4 0 0 0 6.08-1.47 12.7 12.7 0 0 0 3.9-3.78A18.7 18.7 0 0 0 99 71.75q.83-2.88 1.34-5.57a8.8 8.8 0 0 1 .77-2.43 1.37 1.37 0 0 1 1.28-.64c1.28 0 1.92.72 1.92 2.17v.9a26 26 0 0 1-1.14 7.17M88.64 44.16a2.14 2.14 0 0 0-2.11-1.14 4.77 4.77 0 0 0-4 2.43 23.1 23.1 0 0 0-2.72 5.57 39 39 0 0 0-1.6 6 28 28 0 0 0-.51 3.77v.39a7.2 7.2 0 0 0 .19 1.84c.13.47.57.71 1.34.71h.64a5.72 5.72 0 0 0 4.35-1.92 14.7 14.7 0 0 0 2.88-4.59 27.5 27.5 0 0 0 1.6-5.51 27 27 0 0 0 .52-4.6v-.77a4.94 4.94 0 0 0-.58-2.18"/><path d="M125.89 84.87a11.2 11.2 0 0 1-2.69 2.05 14.4 14.4 0 0 1-3.33 1.34 11.8 11.8 0 0 1-2.88.45 28.6 28.6 0 0 1-4.8-.45 9.7 9.7 0 0 1-4.42-1.86 12.13 12.13 0 0 1-3.39-5.31 42.6 42.6 0 0 1-2-8.7q-.7-5.06-1-11.27t-.25-13q0-2.82.19-6.27t.45-7.24q.26-3.76.64-7.55c.25-2.51.51-4.93.77-7.23q.38-2.43.89-5.25c.34-1.88.71-3.67 1.09-5.37a34.5 34.5 0 0 1 1.34-4.61 8.45 8.45 0 0 1 1.67-2.95 5.07 5.07 0 0 1 2.75-1.34 17.7 17.7 0 0 1 3.14-.32 7 7 0 0 1 4.73 1.54 9.7 9.7 0 0 1 2.75 4.16 23.8 23.8 0 0 1 1.28 6c.22 2.26.32 4.67.32 7.23q0 5.89-.38 12.74a118 118 0 0 1-1.6 13.76 88 88 0 0 1-3.46 13.44 48.4 48.4 0 0 1-6 11.91c.09 1.19.24 2.58.45 4.16a26 26 0 0 0 1 4.41 12 12 0 0 0 1.66 3.46 3.18 3.18 0 0 0 2.69 1.41 3.8 3.8 0 0 0 2.43-.71 9.3 9.3 0 0 0 1.6-1.6 19 19 0 0 1 1.41-1.6 2.5 2.5 0 0 1 1.86-.7 1.84 1.84 0 0 1 1.73.77 3.47 3.47 0 0 1 .44 1.79 3.82 3.82 0 0 1-1.08 2.71m-8.58-65.93a24 24 0 0 0-.38-3.52 14.2 14.2 0 0 0-.84-2.94c-.34-.81-.81-1.22-1.4-1.22-.86 0-1.54 1.2-2 3.59a74 74 0 0 0-1.22 9.41q-.45 5.82-.64 13.18t-.19 14.91v4.55a30 30 0 0 0 .26 4.16 74.4 74.4 0 0 0 5.37-19.59 161 161 0 0 0 1.1-19.45c0-.86-.02-1.88-.06-3.08m25.41 9.16a6.4 6.4 0 0 1-2 .83 19 19 0 0 1-2.11.38c-.68.09-1.11.13-1.28.13A10.36 10.36 0 0 1 132 27.9a14.85 14.85 0 0 1-4.8-4.86c-.17-.26-.43-.6-.77-1a2 2 0 0 1-.51-.9c0-.43.32-.81 1-1.15a23 23 0 0 1 2.17-1 15 15 0 0 1 2.31-.76 8 8 0 0 1 1.47-.26 11 11 0 0 1 5.06 1.28 9.2 9.2 0 0 1 4 4.74c.17.25.49.7 1 1.34a3 3 0 0 1 .7 1.34 1.73 1.73 0 0 1-.91 1.43m12.54 43.71a24.8 24.8 0 0 1-2.88 6.21 16 16 0 0 1-4.67 4.74 12.35 12.35 0 0 1-6.91 1.85 11.9 11.9 0 0 1-6.53-2.17 11.56 11.56 0 0 1-4.54-6 22.8 22.8 0 0 1-1.22-7.17c0-.68 0-1.71.13-3.07s.13-3 .13-5V47.11c0-.69 0-1.41-.07-2.18a11.6 11.6 0 0 0-.32-2.18 5.2 5.2 0 0 0-.45-1.15 2.6 2.6 0 0 1-.32-.89c0-.35.22-.62.64-.84a5 5 0 0 1 1.41-.44 8.4 8.4 0 0 1 1.47-.13h.71l1.79.06a14.4 14.4 0 0 1 2.94.45 8.5 8.5 0 0 1 2.76 1.21 2.71 2.71 0 0 1 1.21 2.37q.14.39-.45 1.41a13.5 13.5 0 0 0-1.09 3.59c-.09.68-.18 1.3-.26 1.85s-.17 1.18-.26 1.86-.17 1.51-.25 2.49-.17 2.24-.26 3.78v7.65c0 1.37 0 2.75.13 4.16a19.6 19.6 0 0 0 .58 3.84 6.3 6.3 0 0 0 1.47 2.82 3.53 3.53 0 0 0 2.69 1.08 5.18 5.18 0 0 0 3.84-1.4 24 24 0 0 0 2.17-2.44 14.2 14.2 0 0 0 2.18-4.8q.77-2.88 1.41-6l.25-1.28a2.14 2.14 0 0 1 2.31-1.84c1.28 0 1.92.9 1.92 2.69v.64l-.26 1.92a38.4 38.4 0 0 1-1.4 6.4"/><path d="M180.29 59.39c.29 1.11.72 2.46 1.28 4s1.21 3.28 2 5.12a41.4 41.4 0 0 0 2.56 5.12 19.8 19.8 0 0 0 2.94 3.9 4.52 4.52 0 0 0 3.2 1.54 6.56 6.56 0 0 0 4.29-1.41 12.1 12.1 0 0 0 3-3.65 22.2 22.2 0 0 0 1.92-4.86 48 48 0 0 0 1.08-5.06 9 9 0 0 1 .64-1.92 1.17 1.17 0 0 1 1-.77 1.9 1.9 0 0 1 1.41.51 2.77 2.77 0 0 1 .7 1.28 10.4 10.4 0 0 1 .26 1.67c0 .6.06 1.15.06 1.66v.39a35 35 0 0 1-.9 4.41 24.8 24.8 0 0 1-2.62 6.4 19.1 19.1 0 0 1-5.11 5.8 13.82 13.82 0 0 1-8.26 2.63h-.25a14.18 14.18 0 0 1-10.75-4.29q-4.11-4.29-7.43-14a14 14 0 0 0-2.31 3.16q-1.92 3.08-4.1 7c-1.45 2.65-2.77 5.27-4 7.88a16 16 0 0 0-1.79 5.69v.26c0 .34.21.6.64.77a1.35 1.35 0 0 1-1 1 4.5 4.5 0 0 1-1.6.32l-1.22-.13a12 12 0 0 1-2.24-.51 11.3 11.3 0 0 1-2.11-1 1.71 1.71 0 0 1-1-1.48l17.41-31.61a31 31 0 0 0-.45-3.59 56 56 0 0 0-1.28-5.89 27 27 0 0 0-2.11-5.5q-1.28-2.43-2.94-2.43a4.5 4.5 0 0 0-3.4 1.41 12.3 12.3 0 0 0-2.24 3.32 20.7 20.7 0 0 0-1.34 3.78c-.3 1.24-.53 2.15-.7 2.75a7.84 7.84 0 0 1-2.5 2.63 6 6 0 0 1-3.26 1.47c-.94 0-1.41-.43-1.41-1.28a15.6 15.6 0 0 1 2.17-7 45 45 0 0 1 5.47-7.92 41.4 41.4 0 0 1 7-6.53q3.64-2.69 6.59-2.69a5.63 5.63 0 0 1 4.42 2 17.7 17.7 0 0 1 2.88 4.67 28.6 28.6 0 0 1 1.72 5.51l1 4.6c.35-.34 1-1 2-2.11s2.04-2.39 3.39-3.85 2.76-3.07 4.29-4.74 3-3.2 4.42-4.6a50 50 0 0 1 3.77-3.46 4.9 4.9 0 0 1 2.44-1.34 8 8 0 0 1 4.16 1.4 4.35 4.35 0 0 1 2.24 3.84c0 .52-.22.77-.64.77a1 1 0 0 1-.71-.32 1.13 1.13 0 0 0-.83-.32 4.3 4.3 0 0 0-1.92.64 16.7 16.7 0 0 0-3.33 3q-1.53 1.66-4.41 4.86t-5.7 6.47q-2.82 3.25-4.86 5.82a12.4 12.4 0 0 0-2 2.94 14 14 0 0 0 .37 1.87"/><path d="M219.13 28.1a6.4 6.4 0 0 1-2 .83 19 19 0 0 1-2.11.38c-.69.09-1.11.13-1.28.13a10.37 10.37 0 0 1-5.32-1.54 14.85 14.85 0 0 1-4.8-4.86c-.17-.26-.42-.6-.76-1a2 2 0 0 1-.52-.9c0-.43.32-.81 1-1.15a24 24 0 0 1 2.18-1 14.7 14.7 0 0 1 2.3-.76 8 8 0 0 1 1.48-.26 11 11 0 0 1 5.05 1.28 9.17 9.17 0 0 1 4 4.74c.17.25.49.7 1 1.34a3.1 3.1 0 0 1 .65 1.29 1.72 1.72 0 0 1-.87 1.48m12.55 43.71a25.5 25.5 0 0 1-2.88 6.21 16 16 0 0 1-4.68 4.74 12.3 12.3 0 0 1-6.91 1.85 11.93 11.93 0 0 1-6.53-2.17 11.56 11.56 0 0 1-4.54-6 23 23 0 0 1-1.22-7.17c0-.68.05-1.71.13-3.07s.13-3 .13-5V47.11c0-.69 0-1.41-.06-2.18a11.6 11.6 0 0 0-.33-2.18 5.6 5.6 0 0 0-.44-1.15 2.4 2.4 0 0 1-.32-.89c0-.35.21-.62.64-.84a4.8 4.8 0 0 1 1.41-.44 8.4 8.4 0 0 1 1.47-.13h.7l1.79.06a14.6 14.6 0 0 1 3 .45 8.4 8.4 0 0 1 2.7 1.21 2.72 2.72 0 0 1 1.26 2.37q.12.39-.45 1.41a13 13 0 0 0-1.09 3.59c-.09.68-.17 1.3-.26 1.85s-.17 1.18-.25 1.86-.17 1.51-.26 2.49-.17 2.24-.25 3.78v7.65c0 1.37 0 2.75.12 4.16a20.4 20.4 0 0 0 .54 3.84 6.4 6.4 0 0 0 1.47 2.82 3.53 3.53 0 0 0 2.69 1.08 5.18 5.18 0 0 0 3.84-1.4 24 24 0 0 0 2.18-2.44 14.4 14.4 0 0 0 2.17-4.8q.77-2.88 1.41-6l.26-1.28a2.13 2.13 0 0 1 2.3-1.92c1.28 0 1.92.9 1.92 2.69v.64l-.26 1.92a37.3 37.3 0 0 1-1.4 6.48"/><path d="M233.85 49.41q.26-6.78.51-12.55c0-.68-.68-1.15-2.05-1.4s-2.9-.52-4.6-.77a20 20 0 0 1-4.61-1.22 2.84 2.84 0 0 1-2-2.75q0-1.66 3.33-1.92t9.85-.26c.35 0 .58-.51.71-1.53s.21-2.33.25-3.91.09-3.26.13-5 .11-3.48.19-5.06a28 28 0 0 1 .45-3.9c.22-1 .49-1.54.83-1.54a18 18 0 0 1 2.31.26c1.11.17 2.26.41 3.46.7a17.5 17.5 0 0 1 3.13 1.09q1.26.6 1.26 1.37l-1.41 16.64c0 .51.45.87 1.34 1.09a18 18 0 0 0 3.46.38c1.41 0 2.9.07 4.48.07a24.7 24.7 0 0 1 4.48.38 9.8 9.8 0 0 1 3.45 1.21 2.75 2.75 0 0 1 1.35 2.5 2.4 2.4 0 0 1-.26.83c-.17.39-.38.58-.64.58a1.3 1.3 0 0 1-.7-.38 4.33 4.33 0 0 0-2.37-.39c-.34 0-1.28 0-2.82.13s-3.15.21-4.86.38-3.26.37-4.67.58-2.2.49-2.37.83a18.6 18.6 0 0 0-.32 3q-.19 2.74-.39 7.23c-.12 3-.23 6.42-.31 10.31s-.13 7.95-.13 12.22a43 43 0 0 0 .25 4.74 27 27 0 0 0 .77 4.16 9.4 9.4 0 0 0 1.35 3 2.41 2.41 0 0 0 2 1.15 4.27 4.27 0 0 0 3.07-1.41 13.7 13.7 0 0 0 2.56-3.84 37 37 0 0 0 2-5.51q.9-3.06 1.54-6.27a8.8 8.8 0 0 1 .89-2.75 1.7 1.7 0 0 1 1.54-.83 2.47 2.47 0 0 1 1.6.57c.47.39.7 1.26.7 2.63a6.3 6.3 0 0 1-.13 1.66q-.37 2.31-1.47 6.34a46 46 0 0 1-2.94 7.93 27.4 27.4 0 0 1-4.55 6.85 8.23 8.23 0 0 1-6.27 3 9.52 9.52 0 0 1-6-2 15.34 15.34 0 0 1-4.28-5.5 32.2 32.2 0 0 1-2.63-8.32 57 57 0 0 1-.89-10.31v-1.18q.17-6.53.43-13.31"/><path d="M297.21 86.53a2.66 2.66 0 0 1-1.15.51c-.43.09-.88.15-1.34.2a1.22 1.22 0 0 0-1 .44v20.34c0 1.62 0 3.39-.07 5.31a36 36 0 0 1-.57 5.69 23.4 23.4 0 0 1-1.6 5.25 10 10 0 0 1-3.14 4 7 7 0 0 1-.83.58c-.47.3-1 .64-1.54 1s-1.09.75-1.6 1.09-.85.55-1 .64a10.1 10.1 0 0 0-2.88 2.69 3.28 3.28 0 0 1-2.76 1.53 6 6 0 0 1-1-.06 4 4 0 0 1-.64-.19c-.21-.09-.51-.19-.89-.32s-.92-.28-1.6-.45q-5.76-1.16-8-3.39c-1.5-1.5-2.24-3.91-2.24-7.23a39.6 39.6 0 0 1 1.64-10.62 54.5 54.5 0 0 1 4.23-10.62 52.5 52.5 0 0 1 6.4-9.54 43 43 0 0 1 8.06-7.49V69.51c-.42 1.62-.94 3.5-1.53 5.63a38 38 0 0 1-2.24 6 18.6 18.6 0 0 1-3.14 4.74 5.58 5.58 0 0 1-4.22 1.92 9.3 9.3 0 0 1-4.74-1.54 52 52 0 0 1-4.61-3.07 8.56 8.56 0 0 1-2.43-4 34 34 0 0 1-1.34-5.82q-.45-3.08-.58-5.89c-.09-1.88-.13-3.24-.13-4.1 0-3.33 0-6.8.13-10.43s.3-7 .64-10a36 36 0 0 1 1.5-7.68c.68-2 1.57-3 2.68-3a15 15 0 0 1 2.05.25 19 19 0 0 1 3.2.84 10.7 10.7 0 0 1 2.95 1.53 2.88 2.88 0 0 1 1.28 2.37.61.61 0 0 1-.32.57 3 3 0 0 0-.58.45 4.54 4.54 0 0 0-1.41 2 19 19 0 0 0-1.09 4.22c-.29 1.84-.53 4.23-.7 7.17s-.26 6.55-.26 10.82a91 91 0 0 0 .71 13.69q.71 4.1 2.88 4.1t4.16-3.46a43.5 43.5 0 0 0 3.39-9.09q1.53-5.62 2.82-12.8c.85-4.77 1.62-9.6 2.3-14.46.85 0 1.81 0 2.88.13a17 17 0 0 1 3.07.51 11 11 0 0 1 2.5 1 1.77 1.77 0 0 1 1 1.6c0 .43-.25.72-.76.9V82.5a10.8 10.8 0 0 1 2.68.57 2 2 0 0 1 1.28 2.11 1.67 1.67 0 0 1-.5 1.35m-19.07 11.14a50 50 0 0 0-4.16 8.13 51.3 51.3 0 0 0-2.63 8.51 36.3 36.3 0 0 0-.89 7.29c0 .43 0 1.14.06 2.12a9.6 9.6 0 0 0 .58 2.88 7.6 7.6 0 0 0 1.47 2.49 3.63 3.63 0 0 0 2.88 1.09q2.82 0 4.42-3a26.6 26.6 0 0 0 2.43-7 59 59 0 0 0 1.09-8.06q.25-4 .25-6V91.4a24.7 24.7 0 0 0-5.5 6.27m-120.5 47.35a7.4 7.4 0 0 1-.77 1.92 6.6 6.6 0 0 1-1.63 1.92 4.33 4.33 0 0 1-2.85.86 3.27 3.27 0 0 1-2.37-.8 4.7 4.7 0 0 1-1.21-2 8.9 8.9 0 0 1-.45-2.43c0-.85-.06-1.62-.06-2.3v-7.81a11.4 11.4 0 0 0-.13-2.75c-.17.42-.42 1.07-.74 2s-.67 1.91-1.05 3.1-.75 2.48-1.09 3.84-.62 2.73-.83 4.1c-.09.77-.14 1.47-.16 2.11a5.4 5.4 0 0 1-.29 1.66 2.13 2.13 0 0 1-.86 1.09 3.6 3.6 0 0 1-1.89.38 5.3 5.3 0 0 1-1.12-.15 2.55 2.55 0 0 1-1.28-.84 5.6 5.6 0 0 1-1.06-2 11.6 11.6 0 0 1-.45-3.62v-12.71h-.19a3.6 3.6 0 0 0-.57.26l-1.22.61c-.47.23-1 .47-1.5.7a11 11 0 0 1-1.51.55c-.3 0-.45.25-.45.64v10.68a11 11 0 0 0 .26 2.66 7.3 7.3 0 0 0 .54 1.53 3.4 3.4 0 0 0 .52.77.62.62 0 0 1 .22.42q0 .31-.54.45a10 10 0 0 1-1.22.19c-.45 0-.86.06-1.25.06h-.57a3.17 3.17 0 0 1-2.82-1.12 7.5 7.5 0 0 1-.77-4c0-.85 0-1.77.1-2.75s.12-1.81.16-2.49l.25-6c0-.25-.27-.39-.83-.41a12 12 0 0 1-1.82-.23 4.75 4.75 0 0 1-1.83-.76 2.27 2.27 0 0 1-.83-2v-.06c0-.73.3-1.09.9-1.09.08 0 .22.09.41.26a8 8 0 0 0 .77.57 5.6 5.6 0 0 0 1.15.58 4.7 4.7 0 0 0 1.64.25h.38v-13.88a3.5 3.5 0 0 0 0-.51 3 3 0 0 1 0-.32v-.32c0-.47.31-.76.93-.86a10 10 0 0 1 1.7-.16 3.16 3.16 0 0 1 1.69.44 4.3 4.3 0 0 1 1.22 1.09 5.3 5.3 0 0 1 .74 1.35 3.7 3.7 0 0 1 .25 1.28 3.2 3.2 0 0 1-.25 1c-.17.44-.3.82-.39 1.12a25 25 0 0 0-.57 4.25 92 92 0 0 0-.07 3.75v.93a7 7 0 0 0 1.25-.41c.58-.24 1.17-.5 1.79-.8a13.4 13.4 0 0 0 1.6-.9c.45-.3.67-.53.67-.7v-2.37c0-.43 0-1.28.07-2.56s.14-2.76.29-4.45.38-3.45.7-5.31a29.4 29.4 0 0 1 1.34-5.12 12.4 12.4 0 0 1 2.18-3.84 4.12 4.12 0 0 1 3.23-1.5 3 3 0 0 1 2.27 1 8.1 8.1 0 0 1 1.51 2.33 13 13 0 0 1 .83 2.79 14 14 0 0 1 .25 2.33 19.4 19.4 0 0 1-.44 3.91 26 26 0 0 1-1.35 4.41 21.8 21.8 0 0 1-2.33 4.35 16.5 16.5 0 0 1-3.36 3.65c-.13 0-.19.32-.19.83v7.36q0 2.25.06 3.36c0 .75.09 1.51.13 2.28q.89-3 1.82-5.76t1.79-4.87a34 34 0 0 1 1.57-3.39c.47-.85.85-1.28 1.15-1.28.13 0 .47 0 1 .1a14 14 0 0 1 1.76.32 7.5 7.5 0 0 1 1.66.6c.49.26.74.56.74.9a3.4 3.4 0 0 1-.32 1.15 7.2 7.2 0 0 0-.61 2.05 10 10 0 0 0-.13 1.41v10.43c0 1.92 0 3.27.13 4.06s.34 1.19.76 1.19.62-.24 1-.71a14 14 0 0 0 1-1.57c.32-.57.63-1.09.92-1.56s.56-.71.77-.71l.32.26v.83s-.04.33-.17.91m-10.43-35.93a10 10 0 0 0-.21-1.07 2.5 2.5 0 0 0-.42-.93.88.88 0 0 0-.73-.39c-.69 0-1.25.44-1.7 1.32a13.2 13.2 0 0 0-1.09 3.29 30 30 0 0 0-.57 4.29c-.11 1.54-.16 3-.16 4.35v3.46a14.6 14.6 0 0 0 2.08-2.88 21.4 21.4 0 0 0 1.59-3.51 26 26 0 0 0 1-3.48 15.5 15.5 0 0 0 .35-3.14v-.38a9 9 0 0 0-.14-.93m29.18 33.53a12 12 0 0 1-1.79 3.68 10.5 10.5 0 0 1-3.1 2.85 8.56 8.56 0 0 1-4.51 1.15 9.06 9.06 0 0 1-4.23-.9 8 8 0 0 1-2.85-2.43 9.9 9.9 0 0 1-1.6-3.61 19.5 19.5 0 0 1-.48-4.39 27 27 0 0 1 .52-4.93 21 21 0 0 1 1.6-5 12.4 12.4 0 0 1 2.75-3.9 5.64 5.64 0 0 1 4-1.57 5.1 5.1 0 0 1 2.18.48 6.3 6.3 0 0 1 1.79 1.25 5.7 5.7 0 0 1 1.21 1.79 6.3 6.3 0 0 1 .52 2.11l.06.9a12.6 12.6 0 0 1-.51 3.36 13.5 13.5 0 0 1-1.47 3.39 9.3 9.3 0 0 1-2.37 2.62 5.17 5.17 0 0 1-3.2 1.06 5 5 0 0 1-.8-.07 5.7 5.7 0 0 1-.93-.19v1.86a4.4 4.4 0 0 0 .29 1.28 6.4 6.4 0 0 0 .86 1.63 5.9 5.9 0 0 0 1.51 1.41 4.06 4.06 0 0 0 2.27.61 5.7 5.7 0 0 0 3-.74 6.3 6.3 0 0 0 1.95-1.89 9.1 9.1 0 0 0 1.18-2.59c.28-1 .5-1.89.68-2.78a4.2 4.2 0 0 1 .38-1.22.69.69 0 0 1 .64-.32c.64 0 1 .36 1 1.09v.41a12.8 12.8 0 0 1-.55 3.6m-7.26-14.6a1.06 1.06 0 0 0-1.06-.58 2.4 2.4 0 0 0-2 1.22 12.2 12.2 0 0 0-1.38 2.78 20 20 0 0 0-.8 3 14 14 0 0 0-.25 1.89v.19a4 4 0 0 0 .09.93c.07.23.29.35.68.35h.32a2.86 2.86 0 0 0 2.17-1 7.4 7.4 0 0 0 1.44-2.3 14.3 14.3 0 0 0 .8-2.76 13.4 13.4 0 0 0 .26-2.3v-.38a2.44 2.44 0 0 0-.27-1.04m34.49 20.39a9.8 9.8 0 0 1-5.62 1.61h-.61a3.4 3.4 0 0 1-.61-.06 8.6 8.6 0 0 1-3.07-1 8.1 8.1 0 0 1-2.56-2.24 11.3 11.3 0 0 1-1.72-3.52 16.2 16.2 0 0 1-.64-4.77 23 23 0 0 1 .67-5.38 11.76 11.76 0 0 1 2.72-5.12 13.8 13.8 0 0 1 4.19-3.26 10.7 10.7 0 0 1 4.89-1.22 6.4 6.4 0 0 1 2.21.36c.66.23 1 .52 1.12.86a11.4 11.4 0 0 1 .16 1.76v2.78a7.8 7.8 0 0 1-.22 2.18.9.9 0 0 1-.93.7 1.24 1.24 0 0 1-1.09-.8c-.21-.49-.42-1-.64-1.6a7.4 7.4 0 0 0-.83-1.6 2 2 0 0 0-1.66-.8 3.45 3.45 0 0 0-2.75 1.28 9.5 9.5 0 0 0-1.7 3 17.4 17.4 0 0 0-.83 3.46 23 23 0 0 0-.23 2.69 16.4 16.4 0 0 0 1.13 6.4 4.51 4.51 0 0 0 4 2.92l.71.06a4.9 4.9 0 0 0 3.2-1 8.8 8.8 0 0 0 2-2.18 16 16 0 0 0 1.15-2.17c.28-.67.57-1 .87-1h.19c.55 0 .83.41.83 1.09a4 4 0 0 1-.32 1.28 11.6 11.6 0 0 1-4.01 5.29"/><path d="M247.43 123.81a1.8 1.8 0 0 1-.42-.1 1.9 1.9 0 0 0-.67-.1c-.25 0-.86.07-1.82.2l-3 .41q-1.6.23-2.91.51a4.6 4.6 0 0 0-1.51.48 1.3 1.3 0 0 0-.09.52c0 .29-.05 1-.07 2s-.06 2.55-.13 4.57-.16 4.79-.28 8.29q0 .19.06 1.38a17 17 0 0 0 .32 2.46 14.4 14.4 0 0 0 .67 2.34c.28.7.65 1.05 1.12 1.05a1.72 1.72 0 0 0 1.12-.57c.41-.39.82-.81 1.25-1.28a15 15 0 0 0 1.12-1.38 8 8 0 0 1 .67-.86 3.2 3.2 0 0 0 .39-.55c.17-.27.36-.56.57-.86a10 10 0 0 1 .64-.8c.22-.23.39-.35.51-.35.34 0 .52.3.52.89a6.2 6.2 0 0 1-.58 2.15 15 15 0 0 1-1.54 2.75 10.8 10.8 0 0 1-2.27 2.4 4.53 4.53 0 0 1-2.85 1 5.06 5.06 0 0 1-3.84-1.56 10.8 10.8 0 0 1-2.3-4.26 13 13 0 0 1-1 1.38 17 17 0 0 1-1.28 1.37 6.3 6.3 0 0 1-1.38 1 2.9 2.9 0 0 1-1.4.39 4.8 4.8 0 0 1-3.68-1.54 6.4 6.4 0 0 1-1.7-3.77 21 21 0 0 1-.61 2.24 12.4 12.4 0 0 1-1.12 2.46 8 8 0 0 1-1.69 2 3.56 3.56 0 0 1-2.34.83l-1.25-.13a11 11 0 0 1-1.18-.19 11.6 11.6 0 0 1-1.95-.58 3.2 3.2 0 0 1-1.51-1.08 12.3 12.3 0 0 1-1.82-4.61 32.5 32.5 0 0 1-.55-6.21c0-1.11.1-2.58.29-4.42a32 32 0 0 1 1.06-5.44 16.2 16.2 0 0 1 2.08-4.64 3.86 3.86 0 0 1 3.29-2 7.1 7.1 0 0 1 2.4.42q1.57.48 3.24 1a5.2 5.2 0 0 1 2.46 1.61 6.1 6.1 0 0 1 1.12 2.23 10 10 0 0 1 .32 2.5 20 20 0 0 0 .13 2.37c0 .17.13.3.38.38l.83.29a4 4 0 0 1 .84.42.86.86 0 0 1 .38.76 3.3 3.3 0 0 1-.32.9 8.9 8.9 0 0 0-.32 3v2.17a23 23 0 0 0 .23 2.76 12 12 0 0 0 .54 2.36c.23.69.56 1 1 1s.89-.38 1.25-1.12a16 16 0 0 0 1-2.85c.3-1.15.56-2.39.77-3.71s.39-2.56.54-3.71.26-2.14.32-2.95.1-1.23.1-1.28q.06-1.27.09-1.95c0-.45 0-.83.07-1.15s0-.64 0-1v-1.31h-.32c-.34 0-.84 0-1.5-.1a10 10 0 0 1-2-.38 5 5 0 0 1-1.67-.84 1.78 1.78 0 0 1-.7-1.5s0-.09.12-.16a1.9 1.9 0 0 1 .61-.19c.32-.06.8-.13 1.44-.19a27 27 0 0 1 2.69-.1q.32 0 1-.06c.43 0 .64-.11.64-.2.09-.59.16-1.3.22-2.11s.13-1.65.2-2.53.11-1.73.16-2.59.06-1.62.06-2.3a.31.31 0 0 1 .29-.35 6 6 0 0 1 .61 0 9 9 0 0 1 1.92.16 1.8 1.8 0 0 1 1.08.64 2.6 2.6 0 0 1 .48 1.4 22 22 0 0 1 .1 2.4v4.93a.3.3 0 0 0 .19.29 4.2 4.2 0 0 0 1.09.16c.59 0 1.51.09 2.75.13l5.18.19a1.37 1.37 0 0 1 1 .48 1.54 1.54 0 0 1 .44 1c-.01.67-.13.89-.39.89m-27.29 6.14a11.6 11.6 0 0 0-.55-2 7.7 7.7 0 0 0-1-1.92 1.94 1.94 0 0 0-1.6-.86 3.21 3.21 0 0 0-2.5 1.15 9.2 9.2 0 0 0-1.69 2.94 18 18 0 0 0-1 4 33 33 0 0 0-.29 4.35c0 .68 0 1.61.09 2.78a29 29 0 0 0 .42 3.49 10.8 10.8 0 0 0 1 3 1.89 1.89 0 0 0 1.66 1.24 2.53 2.53 0 0 0 2.31-1.24 10.3 10.3 0 0 0 1.18-3.27 40 40 0 0 0 .64-4.61c.15-1.72.33-3.46.55-5.21a5.1 5.1 0 0 1 .6-2.08c.24-.28.36-.46.36-.55a12 12 0 0 0-.18-1.21"/></svg>